<svg xmlns="http://www.w3.org/2000/svg" width="800" height="600" viewBox="0 0 800 600" role="img" aria-labelledby="title desc"><title id="title">Spaghetti Carbonara: Cut the guanciale</title><desc id="desc">Demo illustration. Even batons with pale fat and pink meat; remove the tough skin before cutting.</desc><rect width="800" height="600" fill="#faf8f2"/><rect x="95" y="88" width="610" height="424" rx="32" fill="#e5cba4" stroke="#b49872" stroke-width="3"/><path d="M120 130 Q340 118 680 134" fill="none" stroke="#d2b58c" stroke-width="2" stroke-linecap="round" stroke-linejoin="round"/><path d="M120 220 Q340 208 680 224" fill="none" stroke="#d2b58c" stroke-width="2" stroke-linecap="round" stroke-linejoin="round"/><path d="M120 310 Q340 298 680 314" fill="none" stroke="#d2b58c" stroke-width="2" stroke-linecap="round" stroke-linejoin="round"/><path d="M120 400 Q340 388 680 404" fill="none" stroke="#d2b58c" stroke-width="2" stroke-linecap="round" stroke-linejoin="round"/><path d="M120 490 Q340 478 680 494" fill="none" stroke="#d2b58c" stroke-width="2" stroke-linecap="round" stroke-linejoin="round"/><g transform="rotate(-15 295 196)"><rect x="270" y="184" width="52" height="23" rx="5" fill="#c88d83" stroke="#51483e" stroke-width="3"/><path d="M275 193L316 193" fill="none" stroke="#f4e4d2" stroke-width="7" stroke-linecap="round" stroke-linejoin="round"/></g><g transform="rotate(0 367 196)"><rect x="342" y="184" width="52" height="23" rx="5" fill="#c88d83" stroke="#51483e" stroke-width="3"/><path d="M347 193L388 193" fill="none" stroke="#f4e4d2" stroke-width="7" stroke-linecap="round" stroke-linejoin="round"/></g><g transform="rotate(15 439 196)"><rect x="414" y="184" width="52" height="23" rx="5" fill="#c88d83" stroke="#51483e" stroke-width="3"/><path d="M419 193L460 193" fill="none" stroke="#f4e4d2" stroke-width="7" stroke-linecap="round" stroke-linejoin="round"/></g><g transform="rotate(-15 511 196)"><rect x="486" y="184" width="52" height="23" rx="5" fill="#c88d83" stroke="#51483e" stroke-width="3"/><path d="M491 193L532 193" fill="none" stroke="#f4e4d2" stroke-width="7" stroke-linecap="round" stroke-linejoin="round"/></g><g transform="rotate(0 295 262)"><rect x="270" y="250" width="52" height="23" rx="5" fill="#c88d83" stroke="#51483e" stroke-width="3"/><path d="M275 259L316 259" fill="none" stroke="#f4e4d2" stroke-width="7" stroke-linecap="round" stroke-linejoin="round"/></g><g transform="rotate(15 367 262)"><rect x="342" y="250" width="52" height="23" rx="5" fill="#c88d83" stroke="#51483e" stroke-width="3"/><path d="M347 259L388 259" fill="none" stroke="#f4e4d2" stroke-width="7" stroke-linecap="round" stroke-linejoin="round"/></g><g transform="rotate(-15 439 262)"><rect x="414" y="250" width="52" height="23" rx="5" fill="#c88d83" stroke="#51483e" stroke-width="3"/><path d="M419 259L460 259" fill="none" stroke="#f4e4d2" stroke-width="7" stroke-linecap="round" stroke-linejoin="round"/></g><g transform="rotate(0 511 262)"><rect x="486" y="250" width="52" height="23" rx="5" fill="#c88d83" stroke="#51483e" stroke-width="3"/><path d="M491 259L532 259" fill="none" stroke="#f4e4d2" stroke-width="7" stroke-linecap="round" stroke-linejoin="round"/></g><g transform="rotate(15 295 328)"><rect x="270" y="316" width="52" height="23" rx="5" fill="#c88d83" stroke="#51483e" stroke-width="3"/><path d="M275 325L316 325" fill="none" stroke="#f4e4d2" stroke-width="7" stroke-linecap="round" stroke-linejoin="round"/></g><g transform="rotate(-15 367 328)"><rect x="342" y="316" width="52" height="23" rx="5" fill="#c88d83" stroke="#51483e" stroke-width="3"/><path d="M347 325L388 325" fill="none" stroke="#f4e4d2" stroke-width="7" stroke-linecap="round" stroke-linejoin="round"/></g><g transform="rotate(0 439 328)"><rect x="414" y="316" width="52" height="23" rx="5" fill="#c88d83" stroke="#51483e" stroke-width="3"/><path d="M419 325L460 325" fill="none" stroke="#f4e4d2" stroke-width="7" stroke-linecap="round" stroke-linejoin="round"/></g><g transform="rotate(15 511 328)"><rect x="486" y="316" width="52" height="23" rx="5" fill="#c88d83" stroke="#51483e" stroke-width="3"/><path d="M491 325L532 325" fill="none" stroke="#f4e4d2" stroke-width="7" stroke-linecap="round" stroke-linejoin="round"/></g><g transform="rotate(-15 295 394)"><rect x="270" y="382" width="52" height="23" rx="5" fill="#c88d83" stroke="#51483e" stroke-width="3"/><path d="M275 391L316 391" fill="none" stroke="#f4e4d2" stroke-width="7" stroke-linecap="round" stroke-linejoin="round"/></g><g transform="rotate(0 367 394)"><rect x="342" y="382" width="52" height="23" rx="5" fill="#c88d83" stroke="#51483e" stroke-width="3"/><path d="M347 391L388 391" fill="none" stroke="#f4e4d2" stroke-width="7" stroke-linecap="round" stroke-linejoin="round"/></g><g transform="rotate(15 439 394)"><rect x="414" y="382" width="52" height="23" rx="5" fill="#c88d83" stroke="#51483e" stroke-width="3"/><path d="M419 391L460 391" fill="none" stroke="#f4e4d2" stroke-width="7" stroke-linecap="round" stroke-linejoin="round"/></g><g transform="rotate(-15 511 394)"><rect x="486" y="382" width="52" height="23" rx="5" fill="#c88d83" stroke="#51483e" stroke-width="3"/><path d="M491 391L532 391" fill="none" stroke="#f4e4d2" stroke-width="7" stroke-linecap="round" stroke-linejoin="round"/></g><g transform="rotate(-12 586 245)"><path d="M560 153 L612 153 L612 392 Q578 376 560 320 Z" fill="#d9dcd5" stroke="#51483e" stroke-width="3" stroke-linecap="round" stroke-linejoin="round"/><rect x="562" y="103" width="48" height="72" rx="10" fill="#685c4c" stroke="#51483e" stroke-width="3"/></g></svg>
