<svg xmlns="http://www.w3.org/2000/svg" width="800" height="600" viewBox="0 0 800 600" role="img" aria-labelledby="title desc"><title id="title">Spaghetti Carbonara: Toss off the heat</title><desc id="desc">Demo illustration. Spaghetti and crisp guanciale coated in a fluid egg-Pecorino sauce; the skillet is off the heat.</desc><rect width="800" height="600" fill="#faf8f2"/><g transform=""><rect x="610" y="268" width="160" height="60" rx="18" fill="#55554c" stroke="#51483e" stroke-width="3"/><ellipse cx="395" cy="300" rx="236" ry="226" fill="#55554c" stroke="#51483e" stroke-width="3"/><ellipse cx="395" cy="300" rx="215" ry="205" fill="#c9b176" stroke="#8c8a79" stroke-width="3"/></g><g transform=""><path d="M250 200 C320 105 570 240 475 383 S230 375 287 230" fill="none" stroke="#a9864a" stroke-width="8" stroke-linecap="round" stroke-linejoin="round"/><path d="M250 200 C320 105 570 240 475 383 S230 375 287 230" fill="none" stroke="#f0d38a" stroke-width="5" stroke-linecap="round" stroke-linejoin="round"/></g><g transform=""><path d="M250 205 C323 105 570 244 475 383 S230 375 287 234" fill="none" stroke="#a9864a" stroke-width="8" stroke-linecap="round" stroke-linejoin="round"/><path d="M250 205 C323 105 570 244 475 383 S230 375 287 234" fill="none" stroke="#f0d38a" stroke-width="5" stroke-linecap="round" stroke-linejoin="round"/></g><g transform=""><path d="M250 210 C326 105 570 248 475 383 S230 375 287 238" fill="none" stroke="#a9864a" stroke-width="8" stroke-linecap="round" stroke-linejoin="round"/><path d="M250 210 C326 105 570 248 475 383 S230 375 287 238" fill="none" stroke="#f0d38a" stroke-width="5" stroke-linecap="round" stroke-linejoin="round"/></g><g transform=""><path d="M250 215 C329 105 570 252 475 383 S230 375 287 242" fill="none" stroke="#a9864a" stroke-width="8" stroke-linecap="round" stroke-linejoin="round"/><path d="M250 215 C329 105 570 252 475 383 S230 375 287 242" fill="none" stroke="#f0d38a" stroke-width="5" stroke-linecap="round" stroke-linejoin="round"/></g><g transform=""><path d="M250 220 C332 105 570 256 475 383 S230 375 287 246" fill="none" stroke="#a9864a" stroke-width="8" stroke-linecap="round" stroke-linejoin="round"/><path d="M250 220 C332 105 570 256 475 383 S230 375 287 246" fill="none" stroke="#f0d38a" stroke-width="5" stroke-linecap="round" stroke-linejoin="round"/></g><g transform=""><path d="M250 225 C335 105 570 260 475 383 S230 375 287 250" fill="none" stroke="#a9864a" stroke-width="8" stroke-linecap="round" stroke-linejoin="round"/><path d="M250 225 C335 105 570 260 475 383 S230 375 287 250" fill="none" stroke="#f0d38a" stroke-width="5" stroke-linecap="round" stroke-linejoin="round"/></g><g transform=""><path d="M250 230 C338 105 570 264 475 383 S230 375 287 254" fill="none" stroke="#a9864a" stroke-width="8" stroke-linecap="round" stroke-linejoin="round"/><path d="M250 230 C338 105 570 264 475 383 S230 375 287 254" fill="none" stroke="#f0d38a" stroke-width="5" stroke-linecap="round" stroke-linejoin="round"/></g><g transform=""><path d="M250 235 C341 105 570 268 475 383 S230 375 287 258" fill="none" stroke="#a9864a" stroke-width="8" stroke-linecap="round" stroke-linejoin="round"/><path d="M250 235 C341 105 570 268 475 383 S230 375 287 258" fill="none" stroke="#f0d38a" stroke-width="5" stroke-linecap="round" stroke-linejoin="round"/></g><g transform=""><path d="M250 240 C344 105 570 272 475 383 S230 375 287 262" fill="none" stroke="#a9864a" stroke-width="8" stroke-linecap="round" stroke-linejoin="round"/><path d="M250 240 C344 105 570 272 475 383 S230 375 287 262" fill="none" stroke="#f0d38a" stroke-width="5" stroke-linecap="round" stroke-linejoin="round"/></g><g transform=""><path d="M250 245 C347 105 570 276 475 383 S230 375 287 266" fill="none" stroke="#a9864a" stroke-width="8" stroke-linecap="round" stroke-linejoin="round"/><path d="M250 245 C347 105 570 276 475 383 S230 375 287 266" fill="none" stroke="#f0d38a" stroke-width="5" stroke-linecap="round" stroke-linejoin="round"/></g><g transform=""><path d="M250 250 C350 105 570 280 475 383 S230 375 287 270" fill="none" stroke="#a9864a" stroke-width="8" stroke-linecap="round" stroke-linejoin="round"/><path d="M250 250 C350 105 570 280 475 383 S230 375 287 270" fill="none" stroke="#f0d38a" stroke-width="5" stroke-linecap="round" stroke-linejoin="round"/></g><g transform=""><path d="M250 255 C353 105 570 284 475 383 S230 375 287 274" fill="none" stroke="#a9864a" stroke-width="8" stroke-linecap="round" stroke-linejoin="round"/><path d="M250 255 C353 105 570 284 475 383 S230 375 287 274" fill="none" stroke="#f0d38a" stroke-width="5" stroke-linecap="round" stroke-linejoin="round"/></g><g transform=""><path d="M250 260 C356 105 570 288 475 383 S230 375 287 278" fill="none" stroke="#a9864a" stroke-width="8" stroke-linecap="round" stroke-linejoin="round"/><path d="M250 260 C356 105 570 288 475 383 S230 375 287 278" fill="none" stroke="#f0d38a" stroke-width="5" stroke-linecap="round" stroke-linejoin="round"/></g><g transform=""><path d="M250 265 C359 105 570 292 475 383 S230 375 287 282" fill="none" stroke="#a9864a" stroke-width="8" stroke-linecap="round" stroke-linejoin="round"/><path d="M250 265 C359 105 570 292 475 383 S230 375 287 282" fill="none" stroke="#f0d38a" stroke-width="5" stroke-linecap="round" stroke-linejoin="round"/></g><g transform=""><path d="M250 270 C362 105 570 296 475 383 S230 375 287 286" fill="none" stroke="#a9864a" stroke-width="8" stroke-linecap="round" stroke-linejoin="round"/><path d="M250 270 C362 105 570 296 475 383 S230 375 287 286" fill="none" stroke="#f0d38a" stroke-width="5" stroke-linecap="round" stroke-linejoin="round"/></g><g transform=""><path d="M250 275 C365 105 570 300 475 383 S230 375 287 290" fill="none" stroke="#a9864a" stroke-width="8" stroke-linecap="round" stroke-linejoin="round"/><path d="M250 275 C365 105 570 300 475 383 S230 375 287 290" fill="none" stroke="#f0d38a" stroke-width="5" stroke-linecap="round" stroke-linejoin="round"/></g><g transform=""><path d="M250 280 C368 105 570 304 475 383 S230 375 287 294" fill="none" stroke="#a9864a" stroke-width="8" stroke-linecap="round" stroke-linejoin="round"/><path d="M250 280 C368 105 570 304 475 383 S230 375 287 294" fill="none" stroke="#f0d38a" stroke-width="5" stroke-linecap="round" stroke-linejoin="round"/></g><g transform=""><path d="M250 285 C371 105 570 308 475 383 S230 375 287 298" fill="none" stroke="#a9864a" stroke-width="8" stroke-linecap="round" stroke-linejoin="round"/><path d="M250 285 C371 105 570 308 475 383 S230 375 287 298" fill="none" stroke="#f0d38a" stroke-width="5" stroke-linecap="round" stroke-linejoin="round"/></g><g transform=""><path d="M250 290 C374 105 570 312 475 383 S230 375 287 302" fill="none" stroke="#a9864a" stroke-width="8" stroke-linecap="round" stroke-linejoin="round"/><path d="M250 290 C374 105 570 312 475 383 S230 375 287 302" fill="none" stroke="#f0d38a" stroke-width="5" stroke-linecap="round" stroke-linejoin="round"/></g><g transform=""><path d="M250 295 C377 105 570 316 475 383 S230 375 287 306" fill="none" stroke="#a9864a" stroke-width="8" stroke-linecap="round" stroke-linejoin="round"/><path d="M250 295 C377 105 570 316 475 383 S230 375 287 306" fill="none" stroke="#f0d38a" stroke-width="5" stroke-linecap="round" stroke-linejoin="round"/></g><g transform=""><path d="M250 300 C380 105 570 320 475 383 S230 375 287 310" fill="none" stroke="#a9864a" stroke-width="8" stroke-linecap="round" stroke-linejoin="round"/><path d="M250 300 C380 105 570 320 475 383 S230 375 287 310" fill="none" stroke="#f0d38a" stroke-width="5" stroke-linecap="round" stroke-linejoin="round"/></g><g transform=""><path d="M250 305 C383 105 570 324 475 383 S230 375 287 314" fill="none" stroke="#a9864a" stroke-width="8" stroke-linecap="round" stroke-linejoin="round"/><path d="M250 305 C383 105 570 324 475 383 S230 375 287 314" fill="none" stroke="#f0d38a" stroke-width="5" stroke-linecap="round" stroke-linejoin="round"/></g><g transform=""><path d="M250 310 C386 105 570 328 475 383 S230 375 287 318" fill="none" stroke="#a9864a" stroke-width="8" stroke-linecap="round" stroke-linejoin="round"/><path d="M250 310 C386 105 570 328 475 383 S230 375 287 318" fill="none" stroke="#f0d38a" stroke-width="5" stroke-linecap="round" stroke-linejoin="round"/></g><g transform=""><path d="M250 315 C389 105 570 332 475 383 S230 375 287 322" fill="none" stroke="#a9864a" stroke-width="8" stroke-linecap="round" stroke-linejoin="round"/><path d="M250 315 C389 105 570 332 475 383 S230 375 287 322" fill="none" stroke="#f0d38a" stroke-width="5" stroke-linecap="round" stroke-linejoin="round"/></g><g transform=""><path d="M250 320 C392 105 570 336 475 383 S230 375 287 326" fill="none" stroke="#a9864a" stroke-width="8" stroke-linecap="round" stroke-linejoin="round"/><path d="M250 320 C392 105 570 336 475 383 S230 375 287 326" fill="none" stroke="#f0d38a" stroke-width="5" stroke-linecap="round" stroke-linejoin="round"/></g><g transform=""><path d="M250 325 C395 105 570 340 475 383 S230 375 287 330" fill="none" stroke="#a9864a" stroke-width="8" stroke-linecap="round" stroke-linejoin="round"/><path d="M250 325 C395 105 570 340 475 383 S230 375 287 330" fill="none" stroke="#f0d38a" stroke-width="5" stroke-linecap="round" stroke-linejoin="round"/></g><g transform=""><path d="M250 330 C398 105 570 344 475 383 S230 375 287 334" fill="none" stroke="#a9864a" stroke-width="8" stroke-linecap="round" stroke-linejoin="round"/><path d="M250 330 C398 105 570 344 475 383 S230 375 287 334" fill="none" stroke="#f0d38a" stroke-width="5" stroke-linecap="round" stroke-linejoin="round"/></g><g transform=""><path d="M250 335 C401 105 570 348 475 383 S230 375 287 338" fill="none" stroke="#a9864a" stroke-width="8" stroke-linecap="round" stroke-linejoin="round"/><path d="M250 335 C401 105 570 348 475 383 S230 375 287 338" fill="none" stroke="#f0d38a" stroke-width="5" stroke-linecap="round" stroke-linejoin="round"/></g><g transform=""><path d="M250 340 C404 105 570 352 475 383 S230 375 287 342" fill="none" stroke="#a9864a" stroke-width="8" stroke-linecap="round" stroke-linejoin="round"/><path d="M250 340 C404 105 570 352 475 383 S230 375 287 342" fill="none" stroke="#f0d38a" stroke-width="5" stroke-linecap="round" stroke-linejoin="round"/></g><g transform=""><path d="M250 345 C407 105 570 356 475 383 S230 375 287 346" fill="none" stroke="#a9864a" stroke-width="8" stroke-linecap="round" stroke-linejoin="round"/><path d="M250 345 C407 105 570 356 475 383 S230 375 287 346" fill="none" stroke="#f0d38a" stroke-width="5" stroke-linecap="round" stroke-linejoin="round"/></g><g transform="translate(70 100) scale(.8)"><g transform="rotate(-15 469.8007755419574 282)"><rect x="444.8007755419574" y="270" width="52" height="23" rx="5" fill="#b8703d" stroke="#51483e" stroke-width="3"/><path d="M449.8007755419574 279L490.8007755419574 279" fill="none" stroke="#e4b978" stroke-width="7" stroke-linecap="round" stroke-linejoin="round"/></g><g transform="rotate(0 357.85198704555347 326.58056991637596)"><rect x="332.85198704555347" y="314.58056991637596" width="52" height="23" rx="5" fill="#b8703d" stroke="#51483e" stroke-width="3"/><path d="M337.85198704555347 323.58056991637596L378.85198704555347 323.58056991637596" fill="none" stroke="#e4b978" stroke-width="7" stroke-linecap="round" stroke-linejoin="round"/></g><g transform="rotate(15 423.30520466950657 201.47686528158874)"><rect x="398.30520466950657" y="189.47686528158874" width="52" height="23" rx="5" fill="#b8703d" stroke="#51483e" stroke-width="3"/><path d="M403.30520466950657 198.47686528158874L444.30520466950657 198.47686528158874" fill="none" stroke="#e4b978" stroke-width="7" stroke-linecap="round" stroke-linejoin="round"/></g><g transform="rotate(-15 481.6762476766737 356.0794465669602)"><rect x="456.6762476766737" y="344.0794465669602" width="52" height="23" rx="5" fill="#b8703d" stroke="#51483e" stroke-width="3"/><path d="M461.6762476766737 353.0794465669602L502.6762476766737 353.0794465669602" fill="none" stroke="#e4b978" stroke-width="7" stroke-linecap="round" stroke-linejoin="round"/></g><g transform="rotate(0 294.3380641660963 263.80810036759385)"><rect x="269.3380641660963" y="251.80810036759385" width="52" height="23" rx="5" fill="#b8703d" stroke="#51483e" stroke-width="3"/><path d="M274.3380641660963 260.80810036759385L315.3380641660963 260.80810036759385" fill="none" stroke="#e4b978" stroke-width="7" stroke-linecap="round" stroke-linejoin="round"/></g><g transform="rotate(15 528.2738396286925 220.66147730781202)"><rect x="503.27383962869254" y="208.66147730781202" width="52" height="23" rx="5" fill="#b8703d" stroke="#51483e" stroke-width="3"/><path d="M508.27383962869254 217.66147730781202L549.2738396286925 217.66147730781202" fill="none" stroke="#e4b978" stroke-width="7" stroke-linecap="round" stroke-linejoin="round"/></g><g transform="rotate(-15 377.3292832090408 401.2342982398031)"><rect x="352.3292832090408" y="389.2342982398031" width="52" height="23" rx="5" fill="#b8703d" stroke="#51483e" stroke-width="3"/><path d="M357.3292832090408 398.2342982398031L398.3292832090408 398.2342982398031" fill="none" stroke="#e4b978" stroke-width="7" stroke-linecap="round" stroke-linejoin="round"/></g><g transform="rotate(0 343.59481895123884 164.8411515672414)"><rect x="318.59481895123884" y="152.8411515672414" width="52" height="23" rx="5" fill="#b8703d" stroke="#51483e" stroke-width="3"/><path d="M323.59481895123884 161.8411515672414L364.59481895123884 161.8411515672414" fill="none" stroke="#e4b978" stroke-width="7" stroke-linecap="round" stroke-linejoin="round"/></g></g><ellipse cx="414.7797193749685" cy="300" rx="2.5" ry="1.625" fill="#51483e" stroke="none" stroke-width="3"/><ellipse cx="374.29244718335644" cy="316.1047575246197" rx="2.5" ry="1.625" fill="#51483e" stroke="none" stroke-width="3"/><ellipse cx="400.4757549342727" cy="269.33850231441687" rx="2.5" ry="1.625" fill="#51483e" stroke="none" stroke-width="3"/><ellipse cx="425.621399538997" cy="328.9018431952461" rx="2.5" ry="1.625" fill="#51483e" stroke="none" stroke-width="3"/><ellipse cx="344.4762117091175" cy="292.80718556067467" rx="2.5" ry="1.625" fill="#51483e" stroke="none" stroke-width="3"/><ellipse cx="446.7551174960393" cy="275.4966712794178" rx="2.5" ry="1.625" fill="#51483e" stroke="none" stroke-width="3"/><ellipse cx="380.3578868403266" cy="347.928643380727" rx="2.5" ry="1.625" fill="#51483e" stroke="none" stroke-width="3"/><ellipse cx="365.2616856508957" cy="252.68888265140342" rx="2.5" ry="1.625" fill="#51483e" stroke="none" stroke-width="3"/><ellipse cx="465.8594470846614" cy="319.46892371888134" rx="2.5" ry="1.625" fill="#51483e" stroke="none" stroke-width="3"/><ellipse cx="325.36321932710496" cy="322.8933843730541" rx="2.5" ry="1.625" fill="#51483e" stroke="none" stroke-width="3"/><ellipse cx="431.5336621378907" cy="242.86728031102274" rx="2.5" ry="1.625" fill="#51483e" stroke="none" stroke-width="3"/><ellipse cx="422.5194975211293" cy="362.98852664595637" rx="2.5" ry="1.625" fill="#51483e" stroke="none" stroke-width="3"/><ellipse cx="320.0839375976944" cy="265.490763341092" rx="2.5" ry="1.625" fill="#51483e" stroke="none" stroke-width="3"/><ellipse cx="487.23129692108625" cy="284.64224734781294" rx="2.5" ry="1.625" fill="#51483e" stroke="none" stroke-width="3"/><ellipse cx="341.93324382815274" cy="360.6400981700488" rx="2.5" ry="1.625" fill="#51483e" stroke="none" stroke-width="3"/><ellipse cx="384.2783046838896" cy="223.99552422917364" rx="2.5" ry="1.625" fill="#51483e" stroke="none" stroke-width="3"/><ellipse cx="475.0987337816297" cy="350.95873245841295" rx="2.5" ry="1.625" fill="#51483e" stroke="none" stroke-width="3"/><ellipse cx="291.90358500323856" cy="303.3646964356887" rx="2.5" ry="1.625" fill="#51483e" stroke="none" stroke-width="3"/><ellipse cx="473.6597674284028" cy="240.9393237556582" rx="2.5" ry="1.625" fill="#51483e" stroke="none" stroke-width="3"/><ellipse cx="391.8711640121044" cy="385.87029249133485" rx="2.5" ry="1.625" fill="#51483e" stroke="none" stroke-width="3"/><ellipse cx="324.05798601129464" cy="232.32858442898237" rx="2.5" ry="1.625" fill="#51483e" stroke="none" stroke-width="3"/><ellipse cx="512.548204731157" cy="312.03626956712014" rx="2.5" ry="1.625" fill="#51483e" stroke="none" stroke-width="3"/><ellipse cx="299.09623934513957" cy="352.73720187768845" rx="2.5" ry="1.625" fill="#51483e" stroke="none" stroke-width="3"/><ellipse cx="423.75293928597046" cy="207.93329504645448" rx="2.5" ry="1.625" fill="#51483e" stroke="none" stroke-width="3"/><ellipse cx="458.87815434515176" cy="383.6017793547222" rx="2.5" ry="1.625" fill="#51483e" stroke="none" stroke-width="3"/><ellipse cx="276.0341276315716" cy="270.1227766461511" rx="2.5" ry="1.625" fill="#51483e" stroke="none" stroke-width="3"/><ellipse cx="514.5029513190924" cy="257.96954101930044" rx="2.5" ry="1.625" fill="#51483e" stroke="none" stroke-width="3"/><ellipse cx="346.0947847551064" cy="394.16934729981483" rx="2.5" ry="1.625" fill="#51483e" stroke="none" stroke-width="3"/><ellipse cx="351.56821880062273" cy="202.21011994555175" rx="2.5" ry="1.625" fill="#51483e" stroke="none" stroke-width="3"/><ellipse cx="517.8890957536573" cy="349.1891008153603" rx="2.5" ry="1.625" fill="#51483e" stroke="none" stroke-width="3"/><ellipse cx="262.7226309901299" cy="327.4026444156874" rx="2.5" ry="1.625" fill="#51483e" stroke="none" stroke-width="3"/><ellipse cx="473.3241841062739" cy="208.10195577638513" rx="2.5" ry="1.625" fill="#51483e" stroke="none" stroke-width="3"/><ellipse cx="421.27917207019686" cy="409.37307985209577" rx="2.5" ry="1.625" fill="#51483e" stroke="none" stroke-width="3"/><ellipse cx="281.93802064492974" cy="231.01125227376363" rx="2.5" ry="1.625" fill="#51483e" stroke="none" stroke-width="3"/><ellipse cx="544.1851815198575" cy="290.5594915659816" rx="2.5" ry="1.625" fill="#51483e" stroke="none" stroke-width="3"/><ellipse cx="295.2640129811722" cy="385.1408661961617" rx="2.5" ry="1.625" fill="#51483e" stroke="none" stroke-width="3"/><ellipse cx="397.7410605138134" cy="182.3936660386361" rx="2.5" ry="1.625" fill="#51483e" stroke="none" stroke-width="3"/><ellipse cx="500.4547849510995" cy="388.2919766755459" rx="2.5" ry="1.625" fill="#51483e" stroke="none" stroke-width="3"/><ellipse cx="413.6930639376292" cy="310" rx="4" ry="2.6" fill="#fff9df" stroke="none" stroke-width="3"/><ellipse cx="382.5117615172742" cy="323.0301359860835" rx="4" ry="2.6" fill="#fff9df" stroke="none" stroke-width="3"/><ellipse cx="402.67685521592267" cy="285.19220741017847" rx="4" ry="2.6" fill="#fff9df" stroke="none" stroke-width="3"/><ellipse cx="422.0427918802633" cy="333.3840805430824" rx="4" ry="2.6" fill="#fff9df" stroke="none" stroke-width="3"/><ellipse cx="359.5487658637568" cy="304.1803935809777" rx="4" ry="2.6" fill="#fff9df" stroke="none" stroke-width="3"/><ellipse cx="438.31894028972675" cy="290.17469652350877" rx="4" ry="2.6" fill="#fff9df" stroke="none" stroke-width="3"/><ellipse cx="387.1830643247669" cy="348.77840072566516" rx="4" ry="2.6" fill="#fff9df" stroke="none" stroke-width="3"/><ellipse cx="375.5567138890443" cy="271.7212310236055" rx="4" ry="2.6" fill="#fff9df" stroke="none" stroke-width="3"/><ellipse cx="453.03215375646096" cy="325.7520362024638" rx="4" ry="2.6" fill="#fff9df" stroke="none" stroke-width="3"/><ellipse cx="344.8288807403293" cy="328.5227198302459" rx="4" ry="2.6" fill="#fff9df" stroke="none" stroke-width="3"/><ellipse cx="426.5961252639544" cy="263.7747087676352" rx="4" ry="2.6" fill="#fff9df" stroke="none" stroke-width="3"/><ellipse cx="419.65385976254254" cy="360.9631434379039" rx="4" ry="2.6" fill="#fff9df" stroke="none" stroke-width="3"/><ellipse cx="340.76303803825874" cy="282.07905516403434" rx="4" ry="2.6" fill="#fff9df" stroke="none" stroke-width="3"/><ellipse cx="469.4916996077629" cy="297.5742552973732" rx="4" ry="2.6" fill="#fff9df" stroke="none" stroke-width="3"/><ellipse cx="357.59029728216547" cy="359.06306252405676" rx="4" ry="2.6" fill="#fff9df" stroke="none" stroke-width="3"/><ellipse cx="390.2023770069293" cy="248.50583261928105" rx="4" ry="2.6" fill="#fff9df" stroke="none" stroke-width="3"/><ellipse cx="460.1477971933191" cy="351.23000377972147" rx="4" ry="2.6" fill="#fff9df" stroke="none" stroke-width="3"/><ellipse cx="319.0599187863274" cy="312.722329227366" rx="4" ry="2.6" fill="#fff9df" stroke="none" stroke-width="3"/><ellipse cx="459.03957619931543" cy="262.2148258539522" rx="4" ry="2.6" fill="#fff9df" stroke="none" stroke-width="3"/><ellipse cx="396.0500231962749" cy="379.4764628785233" rx="4" ry="2.6" fill="#fff9df" stroke="none" stroke-width="3"/><ellipse cx="343.8236543433324" cy="255.2479960711516" rx="4" ry="2.6" fill="#fff9df" stroke="none" stroke-width="3"/><ellipse cx="488.98953475551116" cy="319.7383787980029" rx="4" ry="2.6" fill="#fff9df" stroke="none" stroke-width="3"/><ellipse cx="324.5993468114725" cy="352.6689387245553" rx="4" ry="2.6" fill="#fff9df" stroke="none" stroke-width="3"/><ellipse cx="420.60379584382235" cy="235.51010572488238" rx="4" ry="2.6" fill="#fff9df" stroke="none" stroke-width="3"/><ellipse cx="447.655506024664" cy="377.64104035750165" rx="4" ry="2.6" fill="#fff9df" stroke="none" stroke-width="3"/><ellipse cx="306.83804453382106" cy="285.82675289633494" rx="4" ry="2.6" fill="#fff9df" stroke="none" stroke-width="3"/><ellipse cx="490.49498427616805" cy="275.99373848139" rx="4" ry="2.6" fill="#fff9df" stroke="none" stroke-width="3"/><ellipse cx="360.79531108413033" cy="386.1911130398276" rx="4" ry="2.6" fill="#fff9df" stroke="none" stroke-width="3"/><ellipse cx="365.0106803350741" cy="230.87956411486888" rx="4" ry="2.6" fill="#fff9df" stroke="none" stroke-width="3"/><ellipse cx="493.1028258999129" cy="349.7982193570748" rx="4" ry="2.6" fill="#fff9df" stroke="none" stroke-width="3"/><ellipse cx="296.58618561677787" cy="332.1710996001556" rx="4" ry="2.6" fill="#fff9df" stroke="none" stroke-width="3"/><ellipse cx="458.7811264572581" cy="235.64656678262565" rx="4" ry="2.6" fill="#fff9df" stroke="none" stroke-width="3"/><ellipse cx="418.69862220536277" cy="398.4922422154401" rx="4" ry="2.6" fill="#fff9df" stroke="none" stroke-width="3"/><ellipse cx="311.3849320750637" cy="254.18216089200655" rx="4" ry="2.6" fill="#fff9df" stroke="none" stroke-width="3"/><ellipse cx="513.354775669879" cy="302.3618155389811" rx="4" ry="2.6" fill="#fff9df" stroke="none" stroke-width="3"/><ellipse cx="321.64795486210625" cy="378.8862941781624" rx="4" ry="2.6" fill="#fff9df" stroke="none" stroke-width="3"/><ellipse cx="400.5707282990971" cy="214.84634605651974" rx="4" ry="2.6" fill="#fff9df" stroke="none" stroke-width="3"/><ellipse cx="479.67577862806326" cy="381.43581397011087" rx="4" ry="2.6" fill="#fff9df" stroke="none" stroke-width="3"/><ellipse cx="280.35659396208797" cy="300.9813328176655" rx="4" ry="2.6" fill="#fff9df" stroke="none" stroke-width="3"/><ellipse cx="496.946553638673" cy="250.1557660298379" rx="4" ry="2.6" fill="#fff9df" stroke="none" stroke-width="3"/><ellipse cx="377.9424958569867" cy="408.6146677279108" rx="4" ry="2.6" fill="#fff9df" stroke="none" stroke-width="3"/><ellipse cx="333.5575867433139" cy="224.12530349506687" rx="4" ry="2.6" fill="#fff9df" stroke="none" stroke-width="3"/><ellipse cx="521.7542230876611" cy="337.13913283000403" rx="4" ry="2.6" fill="#fff9df" stroke="none" stroke-width="3"/><ellipse cx="286.3689109821534" cy="357.4283923210904" rx="4" ry="2.6" fill="#fff9df" stroke="none" stroke-width="3"/><ellipse cx="444.9051792251182" cy="211.48580828790563" rx="4" ry="2.6" fill="#fff9df" stroke="none" stroke-width="3"/><ellipse cx="449.25063151264476" cy="408.399469713972" rx="4" ry="2.6" fill="#fff9df" stroke="none" stroke-width="3"/><ellipse cx="280.6712268404566" cy="264.0042640857463" rx="4" ry="2.6" fill="#fff9df" stroke="none" stroke-width="3"/><ellipse cx="527.5394027460944" cy="278.0183025112653" rx="4" ry="2.6" fill="#fff9df" stroke="none" stroke-width="3"/><ellipse cx="331.8112420294482" cy="404.63297881236315" rx="4" ry="2.6" fill="#fff9df" stroke="none" stroke-width="3"/><ellipse cx="371.39519401292995" cy="201.6578175167019" rx="4" ry="2.6" fill="#fff9df" stroke="none" stroke-width="3"/><ellipse cx="512.1890725032728" cy="374.81767631666594" rx="4" ry="2.6" fill="#fff9df" stroke="none" stroke-width="3"/><ellipse cx="262.09741435610346" cy="323.978379136176" rx="4" ry="2.6" fill="#fff9df" stroke="none" stroke-width="3"/><ellipse cx="490.94605673117104" cy="223.0976463781169" rx="4" ry="2.6" fill="#fff9df" stroke="none" stroke-width="3"/><ellipse cx="405.16189462186367" cy="425.1257599317272" rx="4" ry="2.6" fill="#fff9df" stroke="none" stroke-width="3"/><ellipse cx="299.65457279225996" cy="227.1824746593716" rx="4" ry="2.6" fill="#fff9df" stroke="none" stroke-width="3"/><ellipse cx="544.0771695235653" cy="315.99163528561604" rx="4" ry="2.6" fill="#fff9df" stroke="none" stroke-width="3"/><ellipse cx="287.78834434454143" cy="385.4080820552176" rx="4" ry="2.6" fill="#fff9df" stroke="none" stroke-width="3"/><ellipse cx="420.2906119793999" cy="191.7143994451615" rx="4" ry="2.6" fill="#fff9df" stroke="none" stroke-width="3"/><ellipse cx="483.99801849084247" cy="409.21944270241175" rx="4" ry="2.6" fill="#fff9df" stroke="none" stroke-width="3"/><ellipse cx="254.43020001213895" cy="282.7571777396454" rx="4" ry="2.6" fill="#fff9df" stroke="none" stroke-width="3"/><path d="M633 126 L499 262 M660 139 L515 275" fill="none" stroke="#8e948c" stroke-width="12" stroke-linecap="round" stroke-linejoin="round"/></svg>
