<svg xmlns="http://www.w3.org/2000/svg" width="800" height="600" viewBox="0 0 800 600" role="img" aria-labelledby="title desc"><title id="title">Spaghetti Carbonara: Render until golden</title><desc id="desc">Demo illustration. Golden, crisp-edged guanciale surrounded by a pool of clear rendered fat.</desc><rect width="800" height="600" fill="#faf8f2"/><g transform=""><rect x="610" y="268" width="160" height="60" rx="18" fill="#55554c" stroke="#51483e" stroke-width="3"/><ellipse cx="395" cy="300" rx="236" ry="226" fill="#55554c" stroke="#51483e" stroke-width="3"/><ellipse cx="395" cy="300" rx="215" ry="205" fill="#393a34" stroke="#8c8a79" stroke-width="3"/></g><ellipse cx="392" cy="300" rx="175" ry="159" fill="#b9a46b" stroke="#c4b280" stroke-width="2"/><g transform="rotate(-15 295 196)"><rect x="270" y="184" width="52" height="23" rx="5" fill="#b8703d" stroke="#51483e" stroke-width="3"/><path d="M275 193L316 193" fill="none" stroke="#e4b978" stroke-width="7" stroke-linecap="round" stroke-linejoin="round"/></g><g transform="rotate(0 367 196)"><rect x="342" y="184" width="52" height="23" rx="5" fill="#b8703d" stroke="#51483e" stroke-width="3"/><path d="M347 193L388 193" fill="none" stroke="#e4b978" stroke-width="7" stroke-linecap="round" stroke-linejoin="round"/></g><g transform="rotate(15 439 196)"><rect x="414" y="184" width="52" height="23" rx="5" fill="#b8703d" stroke="#51483e" stroke-width="3"/><path d="M419 193L460 193" fill="none" stroke="#e4b978" stroke-width="7" stroke-linecap="round" stroke-linejoin="round"/></g><g transform="rotate(-15 511 196)"><rect x="486" y="184" width="52" height="23" rx="5" fill="#b8703d" stroke="#51483e" stroke-width="3"/><path d="M491 193L532 193" fill="none" stroke="#e4b978" stroke-width="7" stroke-linecap="round" stroke-linejoin="round"/></g><g transform="rotate(0 295 262)"><rect x="270" y="250" width="52" height="23" rx="5" fill="#b8703d" stroke="#51483e" stroke-width="3"/><path d="M275 259L316 259" fill="none" stroke="#e4b978" stroke-width="7" stroke-linecap="round" stroke-linejoin="round"/></g><g transform="rotate(15 367 262)"><rect x="342" y="250" width="52" height="23" rx="5" fill="#b8703d" stroke="#51483e" stroke-width="3"/><path d="M347 259L388 259" fill="none" stroke="#e4b978" stroke-width="7" stroke-linecap="round" stroke-linejoin="round"/></g><g transform="rotate(-15 439 262)"><rect x="414" y="250" width="52" height="23" rx="5" fill="#b8703d" stroke="#51483e" stroke-width="3"/><path d="M419 259L460 259" fill="none" stroke="#e4b978" stroke-width="7" stroke-linecap="round" stroke-linejoin="round"/></g><g transform="rotate(0 511 262)"><rect x="486" y="250" width="52" height="23" rx="5" fill="#b8703d" stroke="#51483e" stroke-width="3"/><path d="M491 259L532 259" fill="none" stroke="#e4b978" stroke-width="7" stroke-linecap="round" stroke-linejoin="round"/></g><g transform="rotate(15 295 328)"><rect x="270" y="316" width="52" height="23" rx="5" fill="#b8703d" stroke="#51483e" stroke-width="3"/><path d="M275 325L316 325" fill="none" stroke="#e4b978" stroke-width="7" stroke-linecap="round" stroke-linejoin="round"/></g><g transform="rotate(-15 367 328)"><rect x="342" y="316" width="52" height="23" rx="5" fill="#b8703d" stroke="#51483e" stroke-width="3"/><path d="M347 325L388 325" fill="none" stroke="#e4b978" stroke-width="7" stroke-linecap="round" stroke-linejoin="round"/></g><g transform="rotate(0 439 328)"><rect x="414" y="316" width="52" height="23" rx="5" fill="#b8703d" stroke="#51483e" stroke-width="3"/><path d="M419 325L460 325" fill="none" stroke="#e4b978" stroke-width="7" stroke-linecap="round" stroke-linejoin="round"/></g><g transform="rotate(15 511 328)"><rect x="486" y="316" width="52" height="23" rx="5" fill="#b8703d" stroke="#51483e" stroke-width="3"/><path d="M491 325L532 325" fill="none" stroke="#e4b978" stroke-width="7" stroke-linecap="round" stroke-linejoin="round"/></g><g transform="rotate(-15 295 394)"><rect x="270" y="382" width="52" height="23" rx="5" fill="#b8703d" stroke="#51483e" stroke-width="3"/><path d="M275 391L316 391" fill="none" stroke="#e4b978" stroke-width="7" stroke-linecap="round" stroke-linejoin="round"/></g><g transform="rotate(0 367 394)"><rect x="342" y="382" width="52" height="23" rx="5" fill="#b8703d" stroke="#51483e" stroke-width="3"/><path d="M347 391L388 391" fill="none" stroke="#e4b978" stroke-width="7" stroke-linecap="round" stroke-linejoin="round"/></g><g transform="rotate(15 439 394)"><rect x="414" y="382" width="52" height="23" rx="5" fill="#b8703d" stroke="#51483e" stroke-width="3"/><path d="M419 391L460 391" fill="none" stroke="#e4b978" stroke-width="7" stroke-linecap="round" stroke-linejoin="round"/></g><g transform="rotate(-15 511 394)"><rect x="486" y="382" width="52" height="23" rx="5" fill="#b8703d" stroke="#51483e" stroke-width="3"/><path d="M491 391L532 391" fill="none" stroke="#e4b978" stroke-width="7" stroke-linecap="round" stroke-linejoin="round"/></g></svg>
