<svg xmlns="http://www.w3.org/2000/svg" width="800" height="600" viewBox="0 0 800 600" role="img" aria-labelledby="title desc"><title id="title">Spaghetti Carbonara: Loosen into a glossy ribbon</title><desc id="desc">Demo illustration. Warm egg-and-cheese sauce loosened with pasta water, flowing in a smooth ribbon rather than forming curds.</desc><rect width="800" height="600" fill="#faf8f2"/><ellipse cx="400" cy="300" rx="225" ry="210" fill="#fdfcf8" stroke="#aaa79a" stroke-width="3"/><ellipse cx="400" cy="300" rx="201" ry="186" fill="#f0d997" stroke="#d0c9b7" stroke-width="2"/><path d="M432 152 C482 208 357 212 410 256 S469 320 404 326" fill="none" stroke="#c4a660" stroke-width="27" stroke-linecap="round" stroke-linejoin="round"/><path d="M432 152 C482 208 357 212 410 256 S469 320 404 326" fill="none" stroke="#fae8ad" stroke-width="20" stroke-linecap="round" stroke-linejoin="round"/><ellipse cx="406.0739222823013" cy="354" rx="2" ry="1.3" fill="#665641" stroke="none" stroke-width="3"/><ellipse cx="364.91670289199976" cy="366.08353772530165" rx="2" ry="1.3" fill="#665641" stroke="none" stroke-width="3"/><ellipse cx="391.53326862080917" cy="330.994415257007" rx="2" ry="1.3" fill="#665641" stroke="none" stroke-width="3"/><ellipse cx="417.09500088099344" cy="375.6853008837062" rx="2" ry="1.3" fill="#665641" stroke="none" stroke-width="3"/><ellipse cx="334.60709499847565" cy="348.60316962265256" rx="2" ry="1.3" fill="#665641" stroke="none" stroke-width="3"/><ellipse cx="438.5784207165966" cy="335.61494225926793" rx="2" ry="1.3" fill="#665641" stroke="none" stroke-width="3"/><ellipse cx="371.08250802402034" cy="389.96127228417987" rx="2" ry="1.3" fill="#665641" stroke="none" stroke-width="3"/><ellipse cx="355.7365083880592" cy="318.50206279517147" rx="2" ry="1.3" fill="#665641" stroke="none" stroke-width="3"/><ellipse cx="457.9988716786262" cy="368.60770048033856" rx="2" ry="1.3" fill="#665641" stroke="none" stroke-width="3"/><ellipse cx="315.1778378988921" cy="371.17710268588246" rx="2" ry="1.3" fill="#665641" stroke="none" stroke-width="3"/><ellipse cx="423.1050943178675" cy="311.1328303046187" rx="2" ry="1.3" fill="#665641" stroke="none" stroke-width="3"/><ellipse cx="413.94177136055544" cy="401.2608318892125" rx="2" ry="1.3" fill="#665641" stroke="none" stroke-width="3"/><ellipse cx="309.81119933326465" cy="328.1074236975124" rx="2" ry="1.3" fill="#665641" stroke="none" stroke-width="3"/><ellipse cx="479.72436378714497" cy="342.47694643866197" rx="2" ry="1.3" fill="#665641" stroke="none" stroke-width="3"/><ellipse cx="332.02204835754543" cy="399.4987858577575" rx="2" ry="1.3" fill="#665641" stroke="none" stroke-width="3"/><ellipse cx="375.06779743856885" cy="296.97318982514497" rx="2" ry="1.3" fill="#665641" stroke="none" stroke-width="3"/><ellipse cx="467.3910418351477" cy="392.2347741127712" rx="2" ry="1.3" fill="#665641" stroke="none" stroke-width="3"/><ellipse cx="281.16454344750815" cy="356.52456059972826" rx="2" ry="1.3" fill="#665641" stroke="none" stroke-width="3"/><ellipse cx="465.9282647526429" cy="309.6862679621633" rx="2" ry="1.3" fill="#665641" stroke="none" stroke-width="3"/><ellipse cx="382.7862966175719" cy="418.4292170941105" rx="2" ry="1.3" fill="#665641" stroke="none" stroke-width="3"/><ellipse cx="313.8510067485963" cy="303.2255563781755" rx="2" ry="1.3" fill="#665641" stroke="none" stroke-width="3"/><ellipse cx="505.46019316314806" cy="363.03091630928674" rx="2" ry="1.3" fill="#665641" stroke="none" stroke-width="3"/><ellipse cx="288.47621540572794" cy="393.56917497464434" rx="2" ry="1.3" fill="#665641" stroke="none" stroke-width="3"/><ellipse cx="415.1956230174533" cy="284.9215614796004" rx="2" ry="1.3" fill="#665641" stroke="none" stroke-width="3"/><ellipse cx="450.9020587457104" cy="416.7271322272818" rx="2" ry="1.3" fill="#665641" stroke="none" stroke-width="3"/><ellipse cx="265.03249247702934" cy="331.5828630160005" rx="2" ry="1.3" fill="#665641" stroke="none" stroke-width="3"/><ellipse cx="507.447285150757" cy="322.4641860687052" rx="2" ry="1.3" fill="#665641" stroke="none" stroke-width="3"/><ellipse cx="336.25245074478835" cy="424.65606911031193" rx="2" ry="1.3" fill="#665641" stroke="none" stroke-width="3"/><ellipse cx="341.8164542855439" cy="280.62741410516503" rx="2" ry="1.3" fill="#665641" stroke="none" stroke-width="3"/><ellipse cx="510.88946047738995" cy="390.90700431021287" rx="2" ry="1.3" fill="#665641" stroke="none" stroke-width="3"/><g transform="translate(-130 -50)"><g transform="rotate(35 506 282)"><rect x="496" y="110" width="20" height="142" rx="8" fill="#b5b6af" stroke="#51483e" stroke-width="3"/><ellipse cx="506" cy="282" rx="24" ry="75" fill="none" stroke="#817f71" stroke-width="3"/><ellipse cx="506" cy="282" rx="34" ry="75" fill="none" stroke="#817f71" stroke-width="3"/><ellipse cx="506" cy="282" rx="44" ry="75" fill="none" stroke="#817f71" stroke-width="3"/></g></g></svg>
