<svg xmlns="http://www.w3.org/2000/svg" width="800" height="600" viewBox="0 0 800 600" role="img" aria-labelledby="title desc"><title id="title">Roast Turkey Breast with Pan Gravy: Carve across the grain</title><desc id="desc">Demo illustration. After thermometer-verified cooking and the 20-minute rest, carve the breast from the bone and cut even slices about ¼ inch thick across the grain. Pan gravy is served alongside; the drawing does not establish doneness.</desc><rect width="800" height="600" fill="#faf8f2"/><ellipse cx="400" cy="302" rx="302" ry="191" fill="#faf9f1" stroke="#b2b2a2" stroke-width="3"/><ellipse cx="400" cy="302" rx="273" ry="164" fill="#f1eee1" stroke="#d2cebc" stroke-width="2"/><path d="M205 319Q212 202 340 205Q411 216 432 315Q400 377 301 374Z" fill="#bf8045" stroke="#946437" stroke-width="3" stroke-linecap="round" stroke-linejoin="round"/><ellipse cx="325.0399203184089" cy="270" rx="3" ry="1.9500000000000002" fill="#80572f" stroke="none" stroke-width="3"/><ellipse cx="302.1774117410351" cy="276.9919888140276" rx="3" ry="1.9500000000000002" fill="#80572f" stroke="none" stroke-width="3"/><ellipse cx="316.9627026642245" cy="256.6881045236977" rx="3" ry="1.9500000000000002" fill="#80572f" stroke="none" stroke-width="3"/><ellipse cx="331.1620419711143" cy="282.5479296423442" rx="3" ry="1.9500000000000002" fill="#80572f" stroke="none" stroke-width="3"/><ellipse cx="285.3406652186054" cy="266.87719122599293" rx="3" ry="1.9500000000000002" fill="#80572f" stroke="none" stroke-width="3"/><ellipse cx="343.0959111085065" cy="259.3617150050946" rx="3" ry="1.9500000000000002" fill="#80572f" stroke="none" stroke-width="3"/><ellipse cx="305.60246753453833" cy="290.8085429338046" rx="3" ry="1.9500000000000002" fill="#80572f" stroke="none" stroke-width="3"/><ellipse cx="297.07788658609326" cy="249.45956014706616" rx="3" ry="1.9500000000000002" fill="#80572f" stroke="none" stroke-width="3"/><ellipse cx="353.88381741688306" cy="278.45256419759664" rx="3" ry="1.9500000000000002" fill="#80572f" stroke="none" stroke-width="3"/><ellipse cx="274.54786717073966" cy="279.9393168265294" rx="3" ry="1.9500000000000002" fill="#80572f" stroke="none" stroke-width="3"/><ellipse cx="334.50060115433575" cy="245.1954454222845" rx="3" ry="1.9500000000000002" fill="#80572f" stroke="none" stroke-width="3"/><ellipse cx="329.41044800958366" cy="297.3468925593778" rx="3" ry="1.9500000000000002" fill="#80572f" stroke="none" stroke-width="3"/><ellipse cx="271.56674205937617" cy="255.01758276516406" rx="3" ry="1.9500000000000002" fill="#80572f" stroke="none" stroke-width="3"/><ellipse cx="365.95215577979303" cy="263.33232837634847" rx="3" ry="1.9500000000000002" fill="#80572f" stroke="none" stroke-width="3"/><ellipse cx="283.9046923351918" cy="296.32730653897437" rx="3" ry="1.9500000000000002" fill="#80572f" stroke="none" stroke-width="3"/><ellipse cx="307.81626416057816" cy="237.00214557137835" rx="3" ry="1.9500000000000002" fill="#80572f" stroke="none" stroke-width="3"/><ellipse cx="359.10109336371795" cy="292.1240764899168" rx="3" ry="1.9500000000000002" fill="#80572f" stroke="none" stroke-width="3"/><ellipse cx="255.65375217319553" cy="271.46080559145145" rx="3" ry="1.9500000000000002" fill="#80572f" stroke="none" stroke-width="3"/><ellipse cx="358.2885323090362" cy="244.35841011464746" rx="3" ry="1.9500000000000002" fill="#80572f" stroke="none" stroke-width="3"/><ellipse cx="312.1038291685776" cy="307.2811651239605" rx="3" ry="1.9500000000000002" fill="#80572f" stroke="none" stroke-width="3"/><ellipse cx="273.81082300197073" cy="240.61999971259166" rx="3" ry="1.9500000000000002" fill="#80572f" stroke="none" stroke-width="3"/><ellipse cx="380.2482046521653" cy="275.2256273990634" rx="3" ry="1.9500000000000002" fill="#80572f" stroke="none" stroke-width="3"/><ellipse cx="259.71532789031346" cy="292.89621095183924" rx="3" ry="1.9500000000000002" fill="#80572f" stroke="none" stroke-width="3"/><ellipse cx="330.1069526492372" cy="230.02862072306976" rx="3" ry="1.9500000000000002" fill="#80572f" stroke="none" stroke-width="3"/><ellipse cx="349.9415941823115" cy="306.2962748856925" rx="3" ry="1.9500000000000002" fill="#80572f" stroke="none" stroke-width="3"/><ellipse cx="246.69252594978082" cy="257.02860250053664" rx="3" ry="1.9500000000000002" fill="#80572f" stroke="none" stroke-width="3"/><ellipse cx="381.35201847350055" cy="251.752193499825" rx="3" ry="1.9500000000000002" fill="#80572f" stroke="none" stroke-width="3"/><ellipse cx="286.25464727133294" cy="310.8842555957783" rx="3" ry="1.9500000000000002" fill="#80572f" stroke="none" stroke-width="3"/><ellipse cx="289.3454070592752" cy="227.54386575392112" rx="3" ry="1.9500000000000002" fill="#80572f" stroke="none" stroke-width="3"/><ellipse cx="383.2641195361033" cy="291.35577900799206" rx="3" ry="1.9500000000000002" fill="#80572f" stroke="none" stroke-width="3"/><ellipse cx="239.17573882956344" cy="281.89704240727383" rx="3" ry="1.9500000000000002" fill="#80572f" stroke="none" stroke-width="3"/><ellipse cx="358.09903382802503" cy="230.10184591352908" rx="3" ry="1.9500000000000002" fill="#80572f" stroke="none" stroke-width="3"/><ellipse cx="328.7100562635931" cy="317.48505835698137" rx="3" ry="1.9500000000000002" fill="#80572f" stroke="none" stroke-width="3"/><ellipse cx="250.02635896325216" cy="240.04807109587279" rx="3" ry="1.9500000000000002" fill="#80572f" stroke="none" stroke-width="3"/><ellipse cx="398.11309438271354" cy="265.90133975823716" rx="3" ry="1.9500000000000002" fill="#80572f" stroke="none" stroke-width="3"/><g transform="translate(337 275) rotate(-19) scale(.82)"><path d="M-63 -85Q18 -106 71 -44Q91 9 51 64Q-5 102 -71 55Q-103 -9 -63 -85Z" fill="#bd824b" stroke="#90623e" stroke-width="2" stroke-linecap="round" stroke-linejoin="round"/><path d="M-57 -76Q17 -91 61 -38Q77 9 44 55Q-8 84 -63 47Q-88 -10 -57 -76Z" fill="#ede0c1" stroke="#d0ba95" stroke-width="2" stroke-linecap="round" stroke-linejoin="round"/><path d="M-52 -40q51 -17 96 13" fill="none" stroke="#d4c2a0" stroke-width="1.5" stroke-linecap="round" stroke-linejoin="round"/><path d="M-52 -21q51 -17 96 13" fill="none" stroke="#d4c2a0" stroke-width="1.5" stroke-linecap="round" stroke-linejoin="round"/><path d="M-52 -2q51 -17 96 13" fill="none" stroke="#d4c2a0" stroke-width="1.5" stroke-linecap="round" stroke-linejoin="round"/><path d="M-52 17q51 -17 96 13" fill="none" stroke="#d4c2a0" stroke-width="1.5" stroke-linecap="round" stroke-linejoin="round"/><path d="M-52 36q51 -17 96 13" fill="none" stroke="#d4c2a0" stroke-width="1.5" stroke-linecap="round" stroke-linejoin="round"/></g><g transform="translate(370 287) rotate(-19) scale(.82)"><path d="M-63 -85Q18 -106 71 -44Q91 9 51 64Q-5 102 -71 55Q-103 -9 -63 -85Z" fill="#bd824b" stroke="#90623e" stroke-width="2" stroke-linecap="round" stroke-linejoin="round"/><path d="M-57 -76Q17 -91 61 -38Q77 9 44 55Q-8 84 -63 47Q-88 -10 -57 -76Z" fill="#ede0c1" stroke="#d0ba95" stroke-width="2" stroke-linecap="round" stroke-linejoin="round"/><path d="M-52 -40q51 -17 96 13" fill="none" stroke="#d4c2a0" stroke-width="1.5" stroke-linecap="round" stroke-linejoin="round"/><path d="M-52 -21q51 -17 96 13" fill="none" stroke="#d4c2a0" stroke-width="1.5" stroke-linecap="round" stroke-linejoin="round"/><path d="M-52 -2q51 -17 96 13" fill="none" stroke="#d4c2a0" stroke-width="1.5" stroke-linecap="round" stroke-linejoin="round"/><path d="M-52 17q51 -17 96 13" fill="none" stroke="#d4c2a0" stroke-width="1.5" stroke-linecap="round" stroke-linejoin="round"/><path d="M-52 36q51 -17 96 13" fill="none" stroke="#d4c2a0" stroke-width="1.5" stroke-linecap="round" stroke-linejoin="round"/></g><g transform="translate(403 299) rotate(-19) scale(.82)"><path d="M-63 -85Q18 -106 71 -44Q91 9 51 64Q-5 102 -71 55Q-103 -9 -63 -85Z" fill="#bd824b" stroke="#90623e" stroke-width="2" stroke-linecap="round" stroke-linejoin="round"/><path d="M-57 -76Q17 -91 61 -38Q77 9 44 55Q-8 84 -63 47Q-88 -10 -57 -76Z" fill="#ede0c1" stroke="#d0ba95" stroke-width="2" stroke-linecap="round" stroke-linejoin="round"/><path d="M-52 -40q51 -17 96 13" fill="none" stroke="#d4c2a0" stroke-width="1.5" stroke-linecap="round" stroke-linejoin="round"/><path d="M-52 -21q51 -17 96 13" fill="none" stroke="#d4c2a0" stroke-width="1.5" stroke-linecap="round" stroke-linejoin="round"/><path d="M-52 -2q51 -17 96 13" fill="none" stroke="#d4c2a0" stroke-width="1.5" stroke-linecap="round" stroke-linejoin="round"/><path d="M-52 17q51 -17 96 13" fill="none" stroke="#d4c2a0" stroke-width="1.5" stroke-linecap="round" stroke-linejoin="round"/><path d="M-52 36q51 -17 96 13" fill="none" stroke="#d4c2a0" stroke-width="1.5" stroke-linecap="round" stroke-linejoin="round"/></g><g transform="translate(436 311) rotate(-19) scale(.82)"><path d="M-63 -85Q18 -106 71 -44Q91 9 51 64Q-5 102 -71 55Q-103 -9 -63 -85Z" fill="#bd824b" stroke="#90623e" stroke-width="2" stroke-linecap="round" stroke-linejoin="round"/><path d="M-57 -76Q17 -91 61 -38Q77 9 44 55Q-8 84 -63 47Q-88 -10 -57 -76Z" fill="#ede0c1" stroke="#d0ba95" stroke-width="2" stroke-linecap="round" stroke-linejoin="round"/><path d="M-52 -40q51 -17 96 13" fill="none" stroke="#d4c2a0" stroke-width="1.5" stroke-linecap="round" stroke-linejoin="round"/><path d="M-52 -21q51 -17 96 13" fill="none" stroke="#d4c2a0" stroke-width="1.5" stroke-linecap="round" stroke-linejoin="round"/><path d="M-52 -2q51 -17 96 13" fill="none" stroke="#d4c2a0" stroke-width="1.5" stroke-linecap="round" stroke-linejoin="round"/><path d="M-52 17q51 -17 96 13" fill="none" stroke="#d4c2a0" stroke-width="1.5" stroke-linecap="round" stroke-linejoin="round"/><path d="M-52 36q51 -17 96 13" fill="none" stroke="#d4c2a0" stroke-width="1.5" stroke-linecap="round" stroke-linejoin="round"/></g><g transform="translate(469 323) rotate(-19) scale(.82)"><path d="M-63 -85Q18 -106 71 -44Q91 9 51 64Q-5 102 -71 55Q-103 -9 -63 -85Z" fill="#bd824b" stroke="#90623e" stroke-width="2" stroke-linecap="round" stroke-linejoin="round"/><path d="M-57 -76Q17 -91 61 -38Q77 9 44 55Q-8 84 -63 47Q-88 -10 -57 -76Z" fill="#ede0c1" stroke="#d0ba95" stroke-width="2" stroke-linecap="round" stroke-linejoin="round"/><path d="M-52 -40q51 -17 96 13" fill="none" stroke="#d4c2a0" stroke-width="1.5" stroke-linecap="round" stroke-linejoin="round"/><path d="M-52 -21q51 -17 96 13" fill="none" stroke="#d4c2a0" stroke-width="1.5" stroke-linecap="round" stroke-linejoin="round"/><path d="M-52 -2q51 -17 96 13" fill="none" stroke="#d4c2a0" stroke-width="1.5" stroke-linecap="round" stroke-linejoin="round"/><path d="M-52 17q51 -17 96 13" fill="none" stroke="#d4c2a0" stroke-width="1.5" stroke-linecap="round" stroke-linejoin="round"/><path d="M-52 36q51 -17 96 13" fill="none" stroke="#d4c2a0" stroke-width="1.5" stroke-linecap="round" stroke-linejoin="round"/></g><g transform="translate(502 335) rotate(-19) scale(.82)"><path d="M-63 -85Q18 -106 71 -44Q91 9 51 64Q-5 102 -71 55Q-103 -9 -63 -85Z" fill="#bd824b" stroke="#90623e" stroke-width="2" stroke-linecap="round" stroke-linejoin="round"/><path d="M-57 -76Q17 -91 61 -38Q77 9 44 55Q-8 84 -63 47Q-88 -10 -57 -76Z" fill="#ede0c1" stroke="#d0ba95" stroke-width="2" stroke-linecap="round" stroke-linejoin="round"/><path d="M-52 -40q51 -17 96 13" fill="none" stroke="#d4c2a0" stroke-width="1.5" stroke-linecap="round" stroke-linejoin="round"/><path d="M-52 -21q51 -17 96 13" fill="none" stroke="#d4c2a0" stroke-width="1.5" stroke-linecap="round" stroke-linejoin="round"/><path d="M-52 -2q51 -17 96 13" fill="none" stroke="#d4c2a0" stroke-width="1.5" stroke-linecap="round" stroke-linejoin="round"/><path d="M-52 17q51 -17 96 13" fill="none" stroke="#d4c2a0" stroke-width="1.5" stroke-linecap="round" stroke-linejoin="round"/><path d="M-52 36q51 -17 96 13" fill="none" stroke="#d4c2a0" stroke-width="1.5" stroke-linecap="round" stroke-linejoin="round"/></g><ellipse cx="647" cy="164" rx="79" ry="73" fill="#f2eee3" stroke="#a6a494" stroke-width="2"/><ellipse cx="647" cy="164" rx="68" ry="62" fill="#a17644" stroke="#82613f" stroke-width="2"/><path d="M606.2 150Q647 123.2 687.8 152" fill="none" stroke="#cfa16c" stroke-width="4" stroke-linecap="round" stroke-linejoin="round"/><path d="M306 397Q348 362 406 406Q458 416 483 394" fill="none" stroke="#b28b57" stroke-width="13" stroke-linecap="round" stroke-linejoin="round"/><g transform="translate(172 289) rotate(-23)"><path d="M0 30Q5 0 0 -33" fill="none" stroke="#59714a" stroke-width="3" stroke-linecap="round" stroke-linejoin="round"/><path d="M2 -12Q-25 -27 -14 -35Q0 -33 2 -12M2 -12Q24 -27 16 -35Q4 -33 2 -12" fill="#59714a" stroke="#59714a" stroke-width="1" stroke-linecap="round" stroke-linejoin="round"/><path d="M2 3Q-25 -12 -14 -20Q0 -18 2 3M2 3Q24 -12 16 -20Q4 -18 2 3" fill="#59714a" stroke="#59714a" stroke-width="1" stroke-linecap="round" stroke-linejoin="round"/><path d="M2 18Q-25 3 -14 -5Q0 -3 2 18M2 18Q24 3 16 -5Q4 -3 2 18" fill="#59714a" stroke="#59714a" stroke-width="1" stroke-linecap="round" stroke-linejoin="round"/></g><g transform="translate(195 362) rotate(-49)"><path d="M0 30Q5 0 0 -33" fill="none" stroke="#59714a" stroke-width="3" stroke-linecap="round" stroke-linejoin="round"/><path d="M2 -12Q-25 -27 -14 -35Q0 -33 2 -12M2 -12Q24 -27 16 -35Q4 -33 2 -12" fill="#59714a" stroke="#59714a" stroke-width="1" stroke-linecap="round" stroke-linejoin="round"/><path d="M2 3Q-25 -12 -14 -20Q0 -18 2 3M2 3Q24 -12 16 -20Q4 -18 2 3" fill="#59714a" stroke="#59714a" stroke-width="1" stroke-linecap="round" stroke-linejoin="round"/><path d="M2 18Q-25 3 -14 -5Q0 -3 2 18M2 18Q24 3 16 -5Q4 -3 2 18" fill="#59714a" stroke="#59714a" stroke-width="1" stroke-linecap="round" stroke-linejoin="round"/></g></svg>
