<svg xmlns="http://www.w3.org/2000/svg" width="800" height="600" viewBox="0 0 800 600" role="img" aria-labelledby="title desc"><title id="title">Steamed Artichoke with Lemon Aioli: Steam until tender</title><desc id="desc">Demo illustration. Two trimmed artichokes steam above water in a covered pot for about 35 minutes, until a leaf pulls away easily. The lid is set aside in this instructional view.</desc><rect width="800" height="600" fill="#faf8f2"/><rect x="91" y="268" width="95" height="57" rx="18" fill="#69786d" stroke="#51483e" stroke-width="3"/><rect x="610" y="268" width="99" height="57" rx="18" fill="#69786d" stroke="#51483e" stroke-width="3"/><ellipse cx="400" cy="300" rx="225" ry="215" fill="#7e8980" stroke="#536257" stroke-width="4"/><ellipse cx="400" cy="300" rx="204" ry="194" fill="#dae3d3" stroke="#aab7a3" stroke-width="3"/><ellipse cx="413.4213106270352" cy="300" rx="4" ry="2.6" fill="#9da995" stroke="none" stroke-width="3"/><ellipse cx="382.8588340735541" cy="315.0236759080474" rx="4" ry="2.6" fill="#9da995" stroke="none" stroke-width="3"/><ellipse cx="402.62373019801424" cy="271.39675009826493" rx="4" ry="2.6" fill="#9da995" stroke="none" stroke-width="3"/><ellipse cx="421.60532940323986" cy="326.9617176568348" rx="4" ry="2.6" fill="#9da995" stroke="none" stroke-width="3"/><ellipse cx="360.35156331246554" cy="293.29002545751155" rx="4" ry="2.6" fill="#9da995" stroke="none" stroke-width="3"/><ellipse cx="437.55846046361796" cy="277.1415329412065" rx="4" ry="2.6" fill="#9da995" stroke="none" stroke-width="3"/><ellipse cx="387.437429945002" cy="344.71128508228975" rx="4" ry="2.6" fill="#9da995" stroke="none" stroke-width="3"/><ellipse cx="376.04181670845" cy="255.8647876066239" rx="4" ry="2.6" fill="#9da995" stroke="none" stroke-width="3"/><ellipse cx="451.979674675308" cy="318.1620120504035" rx="4" ry="2.6" fill="#9da995" stroke="none" stroke-width="3"/><ellipse cx="345.923809850153" cy="321.3565952007243" rx="4" ry="2.6" fill="#9da995" stroke="none" stroke-width="3"/><ellipse cx="426.06829707865035" cy="246.70249067455111" rx="4" ry="2.6" fill="#9da995" stroke="none" stroke-width="3"/><ellipse cx="419.26380816556264" cy="358.7602271445314" rx="4" ry="2.6" fill="#9da995" stroke="none" stroke-width="3"/><ellipse cx="341.9386580891075" cy="267.80730249400114" rx="4" ry="2.6" fill="#9da995" stroke="none" stroke-width="3"/><ellipse cx="468.11256346166533" cy="285.67318395389117" rx="4" ry="2.6" fill="#9da995" stroke="none" stroke-width="3"/><ellipse cx="358.4319626075719" cy="356.56944418730103" rx="4" ry="2.6" fill="#9da995" stroke="none" stroke-width="3"/><ellipse cx="390.39682117928146" cy="229.09755953814653" rx="4" ry="2.6" fill="#9da995" stroke="none" stroke-width="3"/><ellipse cx="458.95410065566546" cy="347.5379700669023" rx="4" ry="2.6" fill="#9da995" stroke="none" stroke-width="3"/><ellipse cx="320.6662601522734" cy="303.1388307896888" rx="4" ry="2.6" fill="#9da995" stroke="none" stroke-width="3"/><ellipse cx="457.86787347731644" cy="244.90395416083376" rx="4" ry="2.6" fill="#9da995" stroke="none" stroke-width="3"/><ellipse cx="396.12841465621915" cy="380.1059837471545" rx="4" ry="2.6" fill="#9da995" stroke="none" stroke-width="3"/><ellipse cx="344.93853323229433" cy="236.8712373208011" rx="4" ry="2.6" fill="#9da995" stroke="none" stroke-width="3"/><ellipse cx="487.22344348564076" cy="311.22829777734125" rx="4" ry="2.6" fill="#9da995" stroke="none" stroke-width="3"/><ellipse cx="326.09575237988724" cy="349.19705423049317" rx="4" ry="2.6" fill="#9da995" stroke="none" stroke-width="3"/><ellipse cx="420.1948917623937" cy="214.11355712562641" rx="4" ry="2.6" fill="#9da995" stroke="none" stroke-width="3"/><ellipse cx="446.70973219426196" cy="377.98975156511045" rx="4" ry="2.6" fill="#9da995" stroke="none" stroke-width="3"/><ellipse cx="308.6869418978191" cy="272.1283775918775" rx="4" ry="2.6" fill="#9da995" stroke="none" stroke-width="3"/><ellipse cx="488.69901577114894" cy="260.7909654630196" rx="4" ry="2.6" fill="#9da995" stroke="none" stroke-width="3"/><ellipse cx="361.5733695268734" cy="387.84793885545844" rx="4" ry="2.6" fill="#9da995" stroke="none" stroke-width="3"/><ellipse cx="365.70508032456394" cy="208.7745678394155" rx="4" ry="2.6" fill="#9da995" stroke="none" stroke-width="3"/><ellipse cx="491.25510202458474" cy="345.8871304164943" rx="4" ry="2.6" fill="#9da995" stroke="none" stroke-width="3"/><ellipse cx="298.63854194460885" cy="325.5631572282535" rx="4" ry="2.6" fill="#9da995" stroke="none" stroke-width="3"/><ellipse cx="457.6145529432541" cy="214.2708959828566" rx="4" ry="2.6" fill="#9da995" stroke="none" stroke-width="3"/><ellipse cx="418.3275283062181" cy="402.0310738768279" rx="4" ry="2.6" fill="#9da995" stroke="none" stroke-width="3"/><ellipse cx="313.14359165532983" cy="235.64233515738755" rx="4" ry="2.6" fill="#9da995" stroke="none" stroke-width="3"/><ellipse cx="511.10513046992713" cy="291.19321486814937" rx="4" ry="2.6" fill="#9da995" stroke="none" stroke-width="3"/><ellipse cx="323.20293391975275" cy="379.4255224461547" rx="4" ry="2.6" fill="#9da995" stroke="none" stroke-width="3"/><ellipse cx="400.5594015934426" cy="190.28835463880478" rx="4" ry="2.6" fill="#9da995" stroke="none" stroke-width="3"/><ellipse cx="478.0945286817437" cy="382.36510489689" rx="4" ry="2.6" fill="#9da995" stroke="none" stroke-width="3"/><ellipse cx="282.7310436710526" cy="289.601525800295" rx="4" ry="2.6" fill="#9da995" stroke="none" stroke-width="3"/><ellipse cx="495.0225469282695" cy="230.99992378488497" rx="4" ry="2.6" fill="#9da995" stroke="none" stroke-width="3"/><ellipse cx="378.38025031439713" cy="413.7021754267373" rx="4" ry="2.6" fill="#9da995" stroke="none" stroke-width="3"/><ellipse cx="334.8762065824236" cy="200.98694208794456" rx="4" ry="2.6" fill="#9da995" stroke="none" stroke-width="3"/><ellipse cx="519.337881985803" cy="331.29127251618047" rx="4" ry="2.6" fill="#9da995" stroke="none" stroke-width="3"/><ellipse cx="288.62403991221964" cy="354.68467833588267" rx="4" ry="2.6" fill="#9da995" stroke="none" stroke-width="3"/><ellipse cx="444.0139885337708" cy="186.41367287290964" rx="4" ry="2.6" fill="#9da995" stroke="none" stroke-width="3"/><ellipse cx="448.27320073284505" cy="413.4540532873426" rx="4" ry="2.6" fill="#9da995" stroke="none" stroke-width="3"/><ellipse cx="283.0394323277694" cy="246.96716670755285" rx="4" ry="2.6" fill="#9da995" stroke="none" stroke-width="3"/><ellipse cx="525.0082486460848" cy="263.1252767758426" rx="4" ry="2.6" fill="#9da995" stroke="none" stroke-width="3"/><ellipse cx="333.1645199231461" cy="409.1113097674886" rx="4" ry="2.6" fill="#9da995" stroke="none" stroke-width="3"/><ellipse cx="371.9628865878928" cy="175.0820529779568" rx="4" ry="2.6" fill="#9da995" stroke="none" stroke-width="3"/><ellipse cx="509.96256191337875" cy="374.7344281851201" rx="4" ry="2.6" fill="#9da995" stroke="none" stroke-width="3"/><ellipse cx="264.834236761877" cy="316.1169951016637" rx="4" ry="2.6" fill="#9da995" stroke="none" stroke-width="3"/><ellipse cx="489.1411362170528" cy="199.80205902255335" rx="4" ry="2.6" fill="#9da995" stroke="none" stroke-width="3"/><ellipse cx="405.0594513733097" cy="432.7393749174377" rx="4" ry="2.6" fill="#9da995" stroke="none" stroke-width="3"/><ellipse cx="301.64603373707666" cy="204.51184380938446" rx="4" ry="2.6" fill="#9da995" stroke="none" stroke-width="3"/><ellipse cx="541.2178059817478" cy="306.90832288983444" rx="4" ry="2.6" fill="#9da995" stroke="none" stroke-width="3"/><ellipse cx="290.01530312093325" cy="386.9451083898897" rx="4" ry="2.6" fill="#9da995" stroke="none" stroke-width="3"/><ellipse cx="419.8879233624114" cy="163.6173460336399" rx="4" ry="2.6" fill="#9da995" stroke="none" stroke-width="3"/><ellipse cx="482.3309891311468" cy="414.39947768236266" rx="4" ry="2.6" fill="#9da995" stroke="none" stroke-width="3"/><ellipse cx="257.3191863813977" cy="268.58917413469555" rx="4" ry="2.6" fill="#9da995" stroke="none" stroke-width="3"/><ellipse cx="528.4510945575857" cy="230.37178555670067" rx="4" ry="2.6" fill="#9da995" stroke="none" stroke-width="3"/><ellipse cx="354.06817720007695" cy="435.4628772106537" rx="4" ry="2.6" fill="#9da995" stroke="none" stroke-width="3"/><ellipse cx="337.7288926283878" cy="169.37990179717485" rx="4" ry="2.6" fill="#9da995" stroke="none" stroke-width="3"/><ellipse cx="539.2380126636148" cy="356.5174150529229" rx="4" ry="2.6" fill="#9da995" stroke="none" stroke-width="3"/><ellipse cx="256.30951402525955" cy="348.6914741108089" rx="4" ry="2.6" fill="#9da995" stroke="none" stroke-width="3"/><ellipse cx="472.128408942239" cy="170.23778791488562" rx="4" ry="2.6" fill="#9da995" stroke="none" stroke-width="3"/><ellipse cx="438.7218379736648" cy="443.3798857113131" rx="4" ry="2.6" fill="#9da995" stroke="none" stroke-width="3"/><ellipse cx="269.2463621937741" cy="218.69678695560037" rx="4" ry="2.6" fill="#9da995" stroke="none" stroke-width="3"/><ellipse cx="554.9506178769526" cy="275.26580531586706" rx="4" ry="2.6" fill="#9da995" stroke="none" stroke-width="3"/><ellipse cx="302.5031381456645" cy="419.2406502598183" rx="4" ry="2.6" fill="#9da995" stroke="none" stroke-width="3"/><ellipse cx="387.61661793902414" cy="147.98341069693896" rx="4" ry="2.6" fill="#9da995" stroke="none" stroke-width="3"/><ellipse cx="517.2810491905628" cy="404.82479264333165" rx="4" ry="2.6" fill="#9da995" stroke="none" stroke-width="3"/><ellipse cx="238.3937107899212" cy="298.4914050967396" rx="4" ry="2.6" fill="#9da995" stroke="none" stroke-width="3"/><ellipse cx="521.0548705375245" cy="195.9593103652681" rx="4" ry="2.6" fill="#9da995" stroke="none" stroke-width="3"/><ellipse cx="384.08564161919946" cy="456.00222860206406" rx="4" ry="2.6" fill="#9da995" stroke="none" stroke-width="3"/><ellipse cx="300.9356722260624" cy="173.84543611135263" rx="4" ry="2.6" fill="#9da995" stroke="none" stroke-width="3"/><ellipse cx="563.1847903582485" cy="329.1905808301931" rx="4" ry="2.6" fill="#9da995" stroke="none" stroke-width="3"/><ellipse cx="258.1452900838667" cy="384.4856631529063" rx="4" ry="2.6" fill="#9da995" stroke="none" stroke-width="3"/><ellipse cx="445.2396763300979" cy="145.0348503826388" rx="4" ry="2.6" fill="#9da995" stroke="none" stroke-width="3"/><ellipse cx="476.5331734381436" cy="444.4151176567684" rx="4" ry="2.6" fill="#9da995" stroke="none" stroke-width="3"/><ellipse cx="240.6136532298152" cy="242.61710931343373" rx="4" ry="2.6" fill="#9da995" stroke="none" stroke-width="3"/><ellipse cx="559.0186390427885" cy="238.9283358171766" rx="4" ry="2.6" fill="#9da995" stroke="none" stroke-width="3"/><ellipse cx="325.4090328455097" cy="448.70689679342587" rx="4" ry="2.6" fill="#9da995" stroke="none" stroke-width="3"/><ellipse cx="349.7088245489811" cy="141.1876829491113" rx="4" ry="2.6" fill="#9da995" stroke="none" stroke-width="3"/><ellipse cx="550.0987689695481" cy="385.1061696736907" rx="4" ry="2.6" fill="#9da995" stroke="none" stroke-width="3"/><ellipse cx="228.22763086982457" cy="334.4532505734593" rx="4" ry="2.6" fill="#9da995" stroke="none" stroke-width="3"/><ellipse cx="502.9315930864603" cy="162.78676949844066" rx="4" ry="2.6" fill="#9da995" stroke="none" stroke-width="3"/><ellipse cx="421.0977642017879" cy="468.6659609195791" rx="4" ry="2.6" fill="#9da995" stroke="none" stroke-width="3"/><ellipse cx="264.5942895494816" cy="188.6350627013993" rx="4" ry="2.6" fill="#9da995" stroke="none" stroke-width="3"/><ellipse cx="579.4754056637337" cy="294.57666642218976" rx="4" ry="2.6" fill="#9da995" stroke="none" stroke-width="3"/><ellipse cx="270.7734664773051" cy="420.65882021584173" rx="4" ry="2.6" fill="#9da995" stroke="none" stroke-width="3"/><ellipse cx="410.15561939440823" cy="126.56308311563583" rx="4" ry="2.6" fill="#9da995" stroke="none" stroke-width="3"/><ellipse cx="515.5881541437898" cy="435.18306249048464" rx="4" ry="2.6" fill="#9da995" stroke="none" stroke-width="3"/><ellipse cx="218.3528346398283" cy="274.8878674207276" rx="4" ry="2.6" fill="#9da995" stroke="none" stroke-width="3"/><ellipse cx="552.4795736409214" cy="200.59463951477926" rx="4" ry="2.6" fill="#9da995" stroke="none" stroke-width="3"/><ellipse cx="400" cy="300" rx="167" ry="156" fill="none" stroke="#bcc9b5" stroke-width="2"/><g transform="translate(307 277) rotate(-27) scale(0.99)"><path d="M-19 58 L-15 147 Q0 157 16 143 L19 58Z" fill="#d5d69c" stroke="#697d49" stroke-width="3" stroke-linecap="round" stroke-linejoin="round"/><path d="M-5 91L-4 140" fill="none" stroke="#eef0bf" stroke-width="3" stroke-linecap="round" stroke-linejoin="round"/><g transform="translate(0 0) rotate(0) scale(1)"><path d="M-29 -32 Q-31 -63 -13 -91 L12 -91 Q34 -65 29 -32 Q12 5 0 15 Q-24 -5 -29 -32Z" fill="#809561" stroke="#526e49" stroke-width="2" stroke-linecap="round" stroke-linejoin="round"/><path d="M0 0 Q-2 -34 0 -80" fill="none" stroke="#d0d3a0" stroke-width="1.5" stroke-linecap="round" stroke-linejoin="round"/></g><g transform="translate(0 0) rotate(40) scale(1)"><path d="M-29 -32 Q-31 -63 -13 -91 L12 -91 Q34 -65 29 -32 Q12 5 0 15 Q-24 -5 -29 -32Z" fill="#809561" stroke="#526e49" stroke-width="2" stroke-linecap="round" stroke-linejoin="round"/><path d="M0 0 Q-2 -34 0 -80" fill="none" stroke="#d0d3a0" stroke-width="1.5" stroke-linecap="round" stroke-linejoin="round"/></g><g transform="translate(0 0) rotate(80) scale(1)"><path d="M-29 -32 Q-31 -63 -13 -91 L12 -91 Q34 -65 29 -32 Q12 5 0 15 Q-24 -5 -29 -32Z" fill="#809561" stroke="#526e49" stroke-width="2" stroke-linecap="round" stroke-linejoin="round"/><path d="M0 0 Q-2 -34 0 -80" fill="none" stroke="#d0d3a0" stroke-width="1.5" stroke-linecap="round" stroke-linejoin="round"/></g><g transform="translate(0 0) rotate(120) scale(1)"><path d="M-29 -32 Q-31 -63 -13 -91 L12 -91 Q34 -65 29 -32 Q12 5 0 15 Q-24 -5 -29 -32Z" fill="#809561" stroke="#526e49" stroke-width="2" stroke-linecap="round" stroke-linejoin="round"/><path d="M0 0 Q-2 -34 0 -80" fill="none" stroke="#d0d3a0" stroke-width="1.5" stroke-linecap="round" stroke-linejoin="round"/></g><g transform="translate(0 0) rotate(160) scale(1)"><path d="M-29 -32 Q-31 -63 -13 -91 L12 -91 Q34 -65 29 -32 Q12 5 0 15 Q-24 -5 -29 -32Z" fill="#809561" stroke="#526e49" stroke-width="2" stroke-linecap="round" stroke-linejoin="round"/><path d="M0 0 Q-2 -34 0 -80" fill="none" stroke="#d0d3a0" stroke-width="1.5" stroke-linecap="round" stroke-linejoin="round"/></g><g transform="translate(0 0) rotate(200) scale(1)"><path d="M-29 -32 Q-31 -63 -13 -91 L12 -91 Q34 -65 29 -32 Q12 5 0 15 Q-24 -5 -29 -32Z" fill="#809561" stroke="#526e49" stroke-width="2" stroke-linecap="round" stroke-linejoin="round"/><path d="M0 0 Q-2 -34 0 -80" fill="none" stroke="#d0d3a0" stroke-width="1.5" stroke-linecap="round" stroke-linejoin="round"/></g><g transform="translate(0 0) rotate(240) scale(1)"><path d="M-29 -32 Q-31 -63 -13 -91 L12 -91 Q34 -65 29 -32 Q12 5 0 15 Q-24 -5 -29 -32Z" fill="#809561" stroke="#526e49" stroke-width="2" stroke-linecap="round" stroke-linejoin="round"/><path d="M0 0 Q-2 -34 0 -80" fill="none" stroke="#d0d3a0" stroke-width="1.5" stroke-linecap="round" stroke-linejoin="round"/></g><g transform="translate(0 0) rotate(280) scale(1)"><path d="M-29 -32 Q-31 -63 -13 -91 L12 -91 Q34 -65 29 -32 Q12 5 0 15 Q-24 -5 -29 -32Z" fill="#809561" stroke="#526e49" stroke-width="2" stroke-linecap="round" stroke-linejoin="round"/><path d="M0 0 Q-2 -34 0 -80" fill="none" stroke="#d0d3a0" stroke-width="1.5" stroke-linecap="round" stroke-linejoin="round"/></g><g transform="translate(0 0) rotate(320) scale(1)"><path d="M-29 -32 Q-31 -63 -13 -91 L12 -91 Q34 -65 29 -32 Q12 5 0 15 Q-24 -5 -29 -32Z" fill="#809561" stroke="#526e49" stroke-width="2" stroke-linecap="round" stroke-linejoin="round"/><path d="M0 0 Q-2 -34 0 -80" fill="none" stroke="#d0d3a0" stroke-width="1.5" stroke-linecap="round" stroke-linejoin="round"/></g><g transform="translate(0 0) rotate(23) scale(0.77)"><path d="M-29 -32 Q-31 -63 -13 -91 L12 -91 Q34 -65 29 -32 Q12 5 0 15 Q-24 -5 -29 -32Z" fill="#9eae76" stroke="#526e49" stroke-width="2" stroke-linecap="round" stroke-linejoin="round"/><path d="M0 0 Q-2 -34 0 -80" fill="none" stroke="#d0d3a0" stroke-width="1.5" stroke-linecap="round" stroke-linejoin="round"/></g><g transform="translate(0 0) rotate(68) scale(0.77)"><path d="M-29 -32 Q-31 -63 -13 -91 L12 -91 Q34 -65 29 -32 Q12 5 0 15 Q-24 -5 -29 -32Z" fill="#9eae76" stroke="#526e49" stroke-width="2" stroke-linecap="round" stroke-linejoin="round"/><path d="M0 0 Q-2 -34 0 -80" fill="none" stroke="#d0d3a0" stroke-width="1.5" stroke-linecap="round" stroke-linejoin="round"/></g><g transform="translate(0 0) rotate(113) scale(0.77)"><path d="M-29 -32 Q-31 -63 -13 -91 L12 -91 Q34 -65 29 -32 Q12 5 0 15 Q-24 -5 -29 -32Z" fill="#9eae76" stroke="#526e49" stroke-width="2" stroke-linecap="round" stroke-linejoin="round"/><path d="M0 0 Q-2 -34 0 -80" fill="none" stroke="#d0d3a0" stroke-width="1.5" stroke-linecap="round" stroke-linejoin="round"/></g><g transform="translate(0 0) rotate(158) scale(0.77)"><path d="M-29 -32 Q-31 -63 -13 -91 L12 -91 Q34 -65 29 -32 Q12 5 0 15 Q-24 -5 -29 -32Z" fill="#9eae76" stroke="#526e49" stroke-width="2" stroke-linecap="round" stroke-linejoin="round"/><path d="M0 0 Q-2 -34 0 -80" fill="none" stroke="#d0d3a0" stroke-width="1.5" stroke-linecap="round" stroke-linejoin="round"/></g><g transform="translate(0 0) rotate(203) scale(0.77)"><path d="M-29 -32 Q-31 -63 -13 -91 L12 -91 Q34 -65 29 -32 Q12 5 0 15 Q-24 -5 -29 -32Z" fill="#9eae76" stroke="#526e49" stroke-width="2" stroke-linecap="round" stroke-linejoin="round"/><path d="M0 0 Q-2 -34 0 -80" fill="none" stroke="#d0d3a0" stroke-width="1.5" stroke-linecap="round" stroke-linejoin="round"/></g><g transform="translate(0 0) rotate(248) scale(0.77)"><path d="M-29 -32 Q-31 -63 -13 -91 L12 -91 Q34 -65 29 -32 Q12 5 0 15 Q-24 -5 -29 -32Z" fill="#9eae76" stroke="#526e49" stroke-width="2" stroke-linecap="round" stroke-linejoin="round"/><path d="M0 0 Q-2 -34 0 -80" fill="none" stroke="#d0d3a0" stroke-width="1.5" stroke-linecap="round" stroke-linejoin="round"/></g><g transform="translate(0 0) rotate(293) scale(0.77)"><path d="M-29 -32 Q-31 -63 -13 -91 L12 -91 Q34 -65 29 -32 Q12 5 0 15 Q-24 -5 -29 -32Z" fill="#9eae76" stroke="#526e49" stroke-width="2" stroke-linecap="round" stroke-linejoin="round"/><path d="M0 0 Q-2 -34 0 -80" fill="none" stroke="#d0d3a0" stroke-width="1.5" stroke-linecap="round" stroke-linejoin="round"/></g><g transform="translate(0 0) rotate(338) scale(0.77)"><path d="M-29 -32 Q-31 -63 -13 -91 L12 -91 Q34 -65 29 -32 Q12 5 0 15 Q-24 -5 -29 -32Z" fill="#9eae76" stroke="#526e49" stroke-width="2" stroke-linecap="round" stroke-linejoin="round"/><path d="M0 0 Q-2 -34 0 -80" fill="none" stroke="#d0d3a0" stroke-width="1.5" stroke-linecap="round" stroke-linejoin="round"/></g><g transform="translate(0 0) rotate(46) scale(0.54)"><path d="M-29 -32 Q-31 -63 -13 -91 L12 -91 Q34 -65 29 -32 Q12 5 0 15 Q-24 -5 -29 -32Z" fill="#b5be85" stroke="#526e49" stroke-width="2" stroke-linecap="round" stroke-linejoin="round"/><path d="M0 0 Q-2 -34 0 -80" fill="none" stroke="#d0d3a0" stroke-width="1.5" stroke-linecap="round" stroke-linejoin="round"/></g><g transform="translate(0 0) rotate(97.42857142857143) scale(0.54)"><path d="M-29 -32 Q-31 -63 -13 -91 L12 -91 Q34 -65 29 -32 Q12 5 0 15 Q-24 -5 -29 -32Z" fill="#b5be85" stroke="#526e49" stroke-width="2" stroke-linecap="round" stroke-linejoin="round"/><path d="M0 0 Q-2 -34 0 -80" fill="none" stroke="#d0d3a0" stroke-width="1.5" stroke-linecap="round" stroke-linejoin="round"/></g><g transform="translate(0 0) rotate(148.85714285714286) scale(0.54)"><path d="M-29 -32 Q-31 -63 -13 -91 L12 -91 Q34 -65 29 -32 Q12 5 0 15 Q-24 -5 -29 -32Z" fill="#b5be85" stroke="#526e49" stroke-width="2" stroke-linecap="round" stroke-linejoin="round"/><path d="M0 0 Q-2 -34 0 -80" fill="none" stroke="#d0d3a0" stroke-width="1.5" stroke-linecap="round" stroke-linejoin="round"/></g><g transform="translate(0 0) rotate(200.28571428571428) scale(0.54)"><path d="M-29 -32 Q-31 -63 -13 -91 L12 -91 Q34 -65 29 -32 Q12 5 0 15 Q-24 -5 -29 -32Z" fill="#b5be85" stroke="#526e49" stroke-width="2" stroke-linecap="round" stroke-linejoin="round"/><path d="M0 0 Q-2 -34 0 -80" fill="none" stroke="#d0d3a0" stroke-width="1.5" stroke-linecap="round" stroke-linejoin="round"/></g><g transform="translate(0 0) rotate(251.71428571428572) scale(0.54)"><path d="M-29 -32 Q-31 -63 -13 -91 L12 -91 Q34 -65 29 -32 Q12 5 0 15 Q-24 -5 -29 -32Z" fill="#b5be85" stroke="#526e49" stroke-width="2" stroke-linecap="round" stroke-linejoin="round"/><path d="M0 0 Q-2 -34 0 -80" fill="none" stroke="#d0d3a0" stroke-width="1.5" stroke-linecap="round" stroke-linejoin="round"/></g><g transform="translate(0 0) rotate(303.14285714285717) scale(0.54)"><path d="M-29 -32 Q-31 -63 -13 -91 L12 -91 Q34 -65 29 -32 Q12 5 0 15 Q-24 -5 -29 -32Z" fill="#b5be85" stroke="#526e49" stroke-width="2" stroke-linecap="round" stroke-linejoin="round"/><path d="M0 0 Q-2 -34 0 -80" fill="none" stroke="#d0d3a0" stroke-width="1.5" stroke-linecap="round" stroke-linejoin="round"/></g><g transform="translate(0 0) rotate(354.57142857142856) scale(0.54)"><path d="M-29 -32 Q-31 -63 -13 -91 L12 -91 Q34 -65 29 -32 Q12 5 0 15 Q-24 -5 -29 -32Z" fill="#b5be85" stroke="#526e49" stroke-width="2" stroke-linecap="round" stroke-linejoin="round"/><path d="M0 0 Q-2 -34 0 -80" fill="none" stroke="#d0d3a0" stroke-width="1.5" stroke-linecap="round" stroke-linejoin="round"/></g><ellipse cx="0" cy="0" rx="22" ry="24" fill="#c8ca94" stroke="#88975d" stroke-width="2"/></g><g transform="translate(498 284) rotate(24) scale(0.99)"><path d="M-19 58 L-15 147 Q0 157 16 143 L19 58Z" fill="#d5d69c" stroke="#697d49" stroke-width="3" stroke-linecap="round" stroke-linejoin="round"/><path d="M-5 91L-4 140" fill="none" stroke="#eef0bf" stroke-width="3" stroke-linecap="round" stroke-linejoin="round"/><g transform="translate(0 0) rotate(0) scale(1)"><path d="M-29 -32 Q-31 -63 -13 -91 L12 -91 Q34 -65 29 -32 Q12 5 0 15 Q-24 -5 -29 -32Z" fill="#809561" stroke="#526e49" stroke-width="2" stroke-linecap="round" stroke-linejoin="round"/><path d="M0 0 Q-2 -34 0 -80" fill="none" stroke="#d0d3a0" stroke-width="1.5" stroke-linecap="round" stroke-linejoin="round"/></g><g transform="translate(0 0) rotate(40) scale(1)"><path d="M-29 -32 Q-31 -63 -13 -91 L12 -91 Q34 -65 29 -32 Q12 5 0 15 Q-24 -5 -29 -32Z" fill="#809561" stroke="#526e49" stroke-width="2" stroke-linecap="round" stroke-linejoin="round"/><path d="M0 0 Q-2 -34 0 -80" fill="none" stroke="#d0d3a0" stroke-width="1.5" stroke-linecap="round" stroke-linejoin="round"/></g><g transform="translate(0 0) rotate(80) scale(1)"><path d="M-29 -32 Q-31 -63 -13 -91 L12 -91 Q34 -65 29 -32 Q12 5 0 15 Q-24 -5 -29 -32Z" fill="#809561" stroke="#526e49" stroke-width="2" stroke-linecap="round" stroke-linejoin="round"/><path d="M0 0 Q-2 -34 0 -80" fill="none" stroke="#d0d3a0" stroke-width="1.5" stroke-linecap="round" stroke-linejoin="round"/></g><g transform="translate(0 0) rotate(120) scale(1)"><path d="M-29 -32 Q-31 -63 -13 -91 L12 -91 Q34 -65 29 -32 Q12 5 0 15 Q-24 -5 -29 -32Z" fill="#809561" stroke="#526e49" stroke-width="2" stroke-linecap="round" stroke-linejoin="round"/><path d="M0 0 Q-2 -34 0 -80" fill="none" stroke="#d0d3a0" stroke-width="1.5" stroke-linecap="round" stroke-linejoin="round"/></g><g transform="translate(0 0) rotate(160) scale(1)"><path d="M-29 -32 Q-31 -63 -13 -91 L12 -91 Q34 -65 29 -32 Q12 5 0 15 Q-24 -5 -29 -32Z" fill="#809561" stroke="#526e49" stroke-width="2" stroke-linecap="round" stroke-linejoin="round"/><path d="M0 0 Q-2 -34 0 -80" fill="none" stroke="#d0d3a0" stroke-width="1.5" stroke-linecap="round" stroke-linejoin="round"/></g><g transform="translate(0 0) rotate(200) scale(1)"><path d="M-29 -32 Q-31 -63 -13 -91 L12 -91 Q34 -65 29 -32 Q12 5 0 15 Q-24 -5 -29 -32Z" fill="#809561" stroke="#526e49" stroke-width="2" stroke-linecap="round" stroke-linejoin="round"/><path d="M0 0 Q-2 -34 0 -80" fill="none" stroke="#d0d3a0" stroke-width="1.5" stroke-linecap="round" stroke-linejoin="round"/></g><g transform="translate(0 0) rotate(240) scale(1)"><path d="M-29 -32 Q-31 -63 -13 -91 L12 -91 Q34 -65 29 -32 Q12 5 0 15 Q-24 -5 -29 -32Z" fill="#809561" stroke="#526e49" stroke-width="2" stroke-linecap="round" stroke-linejoin="round"/><path d="M0 0 Q-2 -34 0 -80" fill="none" stroke="#d0d3a0" stroke-width="1.5" stroke-linecap="round" stroke-linejoin="round"/></g><g transform="translate(0 0) rotate(280) scale(1)"><path d="M-29 -32 Q-31 -63 -13 -91 L12 -91 Q34 -65 29 -32 Q12 5 0 15 Q-24 -5 -29 -32Z" fill="#809561" stroke="#526e49" stroke-width="2" stroke-linecap="round" stroke-linejoin="round"/><path d="M0 0 Q-2 -34 0 -80" fill="none" stroke="#d0d3a0" stroke-width="1.5" stroke-linecap="round" stroke-linejoin="round"/></g><g transform="translate(0 0) rotate(320) scale(1)"><path d="M-29 -32 Q-31 -63 -13 -91 L12 -91 Q34 -65 29 -32 Q12 5 0 15 Q-24 -5 -29 -32Z" fill="#809561" stroke="#526e49" stroke-width="2" stroke-linecap="round" stroke-linejoin="round"/><path d="M0 0 Q-2 -34 0 -80" fill="none" stroke="#d0d3a0" stroke-width="1.5" stroke-linecap="round" stroke-linejoin="round"/></g><g transform="translate(0 0) rotate(23) scale(0.77)"><path d="M-29 -32 Q-31 -63 -13 -91 L12 -91 Q34 -65 29 -32 Q12 5 0 15 Q-24 -5 -29 -32Z" fill="#9eae76" stroke="#526e49" stroke-width="2" stroke-linecap="round" stroke-linejoin="round"/><path d="M0 0 Q-2 -34 0 -80" fill="none" stroke="#d0d3a0" stroke-width="1.5" stroke-linecap="round" stroke-linejoin="round"/></g><g transform="translate(0 0) rotate(68) scale(0.77)"><path d="M-29 -32 Q-31 -63 -13 -91 L12 -91 Q34 -65 29 -32 Q12 5 0 15 Q-24 -5 -29 -32Z" fill="#9eae76" stroke="#526e49" stroke-width="2" stroke-linecap="round" stroke-linejoin="round"/><path d="M0 0 Q-2 -34 0 -80" fill="none" stroke="#d0d3a0" stroke-width="1.5" stroke-linecap="round" stroke-linejoin="round"/></g><g transform="translate(0 0) rotate(113) scale(0.77)"><path d="M-29 -32 Q-31 -63 -13 -91 L12 -91 Q34 -65 29 -32 Q12 5 0 15 Q-24 -5 -29 -32Z" fill="#9eae76" stroke="#526e49" stroke-width="2" stroke-linecap="round" stroke-linejoin="round"/><path d="M0 0 Q-2 -34 0 -80" fill="none" stroke="#d0d3a0" stroke-width="1.5" stroke-linecap="round" stroke-linejoin="round"/></g><g transform="translate(0 0) rotate(158) scale(0.77)"><path d="M-29 -32 Q-31 -63 -13 -91 L12 -91 Q34 -65 29 -32 Q12 5 0 15 Q-24 -5 -29 -32Z" fill="#9eae76" stroke="#526e49" stroke-width="2" stroke-linecap="round" stroke-linejoin="round"/><path d="M0 0 Q-2 -34 0 -80" fill="none" stroke="#d0d3a0" stroke-width="1.5" stroke-linecap="round" stroke-linejoin="round"/></g><g transform="translate(0 0) rotate(203) scale(0.77)"><path d="M-29 -32 Q-31 -63 -13 -91 L12 -91 Q34 -65 29 -32 Q12 5 0 15 Q-24 -5 -29 -32Z" fill="#9eae76" stroke="#526e49" stroke-width="2" stroke-linecap="round" stroke-linejoin="round"/><path d="M0 0 Q-2 -34 0 -80" fill="none" stroke="#d0d3a0" stroke-width="1.5" stroke-linecap="round" stroke-linejoin="round"/></g><g transform="translate(0 0) rotate(248) scale(0.77)"><path d="M-29 -32 Q-31 -63 -13 -91 L12 -91 Q34 -65 29 -32 Q12 5 0 15 Q-24 -5 -29 -32Z" fill="#9eae76" stroke="#526e49" stroke-width="2" stroke-linecap="round" stroke-linejoin="round"/><path d="M0 0 Q-2 -34 0 -80" fill="none" stroke="#d0d3a0" stroke-width="1.5" stroke-linecap="round" stroke-linejoin="round"/></g><g transform="translate(0 0) rotate(293) scale(0.77)"><path d="M-29 -32 Q-31 -63 -13 -91 L12 -91 Q34 -65 29 -32 Q12 5 0 15 Q-24 -5 -29 -32Z" fill="#9eae76" stroke="#526e49" stroke-width="2" stroke-linecap="round" stroke-linejoin="round"/><path d="M0 0 Q-2 -34 0 -80" fill="none" stroke="#d0d3a0" stroke-width="1.5" stroke-linecap="round" stroke-linejoin="round"/></g><g transform="translate(0 0) rotate(338) scale(0.77)"><path d="M-29 -32 Q-31 -63 -13 -91 L12 -91 Q34 -65 29 -32 Q12 5 0 15 Q-24 -5 -29 -32Z" fill="#9eae76" stroke="#526e49" stroke-width="2" stroke-linecap="round" stroke-linejoin="round"/><path d="M0 0 Q-2 -34 0 -80" fill="none" stroke="#d0d3a0" stroke-width="1.5" stroke-linecap="round" stroke-linejoin="round"/></g><g transform="translate(0 0) rotate(46) scale(0.54)"><path d="M-29 -32 Q-31 -63 -13 -91 L12 -91 Q34 -65 29 -32 Q12 5 0 15 Q-24 -5 -29 -32Z" fill="#b5be85" stroke="#526e49" stroke-width="2" stroke-linecap="round" stroke-linejoin="round"/><path d="M0 0 Q-2 -34 0 -80" fill="none" stroke="#d0d3a0" stroke-width="1.5" stroke-linecap="round" stroke-linejoin="round"/></g><g transform="translate(0 0) rotate(97.42857142857143) scale(0.54)"><path d="M-29 -32 Q-31 -63 -13 -91 L12 -91 Q34 -65 29 -32 Q12 5 0 15 Q-24 -5 -29 -32Z" fill="#b5be85" stroke="#526e49" stroke-width="2" stroke-linecap="round" stroke-linejoin="round"/><path d="M0 0 Q-2 -34 0 -80" fill="none" stroke="#d0d3a0" stroke-width="1.5" stroke-linecap="round" stroke-linejoin="round"/></g><g transform="translate(0 0) rotate(148.85714285714286) scale(0.54)"><path d="M-29 -32 Q-31 -63 -13 -91 L12 -91 Q34 -65 29 -32 Q12 5 0 15 Q-24 -5 -29 -32Z" fill="#b5be85" stroke="#526e49" stroke-width="2" stroke-linecap="round" stroke-linejoin="round"/><path d="M0 0 Q-2 -34 0 -80" fill="none" stroke="#d0d3a0" stroke-width="1.5" stroke-linecap="round" stroke-linejoin="round"/></g><g transform="translate(0 0) rotate(200.28571428571428) scale(0.54)"><path d="M-29 -32 Q-31 -63 -13 -91 L12 -91 Q34 -65 29 -32 Q12 5 0 15 Q-24 -5 -29 -32Z" fill="#b5be85" stroke="#526e49" stroke-width="2" stroke-linecap="round" stroke-linejoin="round"/><path d="M0 0 Q-2 -34 0 -80" fill="none" stroke="#d0d3a0" stroke-width="1.5" stroke-linecap="round" stroke-linejoin="round"/></g><g transform="translate(0 0) rotate(251.71428571428572) scale(0.54)"><path d="M-29 -32 Q-31 -63 -13 -91 L12 -91 Q34 -65 29 -32 Q12 5 0 15 Q-24 -5 -29 -32Z" fill="#b5be85" stroke="#526e49" stroke-width="2" stroke-linecap="round" stroke-linejoin="round"/><path d="M0 0 Q-2 -34 0 -80" fill="none" stroke="#d0d3a0" stroke-width="1.5" stroke-linecap="round" stroke-linejoin="round"/></g><g transform="translate(0 0) rotate(303.14285714285717) scale(0.54)"><path d="M-29 -32 Q-31 -63 -13 -91 L12 -91 Q34 -65 29 -32 Q12 5 0 15 Q-24 -5 -29 -32Z" fill="#b5be85" stroke="#526e49" stroke-width="2" stroke-linecap="round" stroke-linejoin="round"/><path d="M0 0 Q-2 -34 0 -80" fill="none" stroke="#d0d3a0" stroke-width="1.5" stroke-linecap="round" stroke-linejoin="round"/></g><g transform="translate(0 0) rotate(354.57142857142856) scale(0.54)"><path d="M-29 -32 Q-31 -63 -13 -91 L12 -91 Q34 -65 29 -32 Q12 5 0 15 Q-24 -5 -29 -32Z" fill="#b5be85" stroke="#526e49" stroke-width="2" stroke-linecap="round" stroke-linejoin="round"/><path d="M0 0 Q-2 -34 0 -80" fill="none" stroke="#d0d3a0" stroke-width="1.5" stroke-linecap="round" stroke-linejoin="round"/></g><ellipse cx="0" cy="0" rx="22" ry="24" fill="#c8ca94" stroke="#88975d" stroke-width="2"/></g><g transform="translate(687 99) rotate(0) scale(0.8)"><ellipse cx="0" cy="0" rx="80" ry="70" fill="#c8d0c3" stroke="#929e8d" stroke-width="3"/><ellipse cx="0" cy="0" rx="17" ry="15" fill="#637260" stroke="#53604f" stroke-width="3"/></g><path d="M181 144 Q197 126 186 105 M398 113 Q412 94 402 75 M603 167 Q622 147 611 128" fill="none" stroke="#bfc9b8" stroke-width="4" stroke-linecap="round" stroke-linejoin="round"/></svg>
