<svg xmlns="http://www.w3.org/2000/svg" width="800" height="600" viewBox="0 0 800 600" role="img" aria-labelledby="title desc"><title id="title">Simple Marinara: Simmer and stir</title><desc id="desc">Demo illustration. Thickening crushed-tomato sauce has a few gentle surface bubbles; the wooden spoon draws a brief curved trail through the sauce.</desc><rect width="800" height="600" fill="#faf8f2"/><g transform=""><rect x="610" y="268" width="160" height="60" rx="18" fill="#55554c" stroke="#51483e" stroke-width="3"/><ellipse cx="395" cy="300" rx="236" ry="226" fill="#55554c" stroke="#51483e" stroke-width="3"/><ellipse cx="395" cy="300" rx="215" ry="205" fill="#bb4e35" stroke="#8c8a79" stroke-width="3"/></g><path d="M402.51806438711395 300 q4 -7 12 -2 l-2 6 q-8 4 -10 -4" fill="#d66543" stroke="none" stroke-width="3" stroke-linecap="round" stroke-linejoin="round"/><path d="M414.51806438711395 309L418.51806438711395 308" fill="none" stroke="#edb86e" stroke-width="2" stroke-linecap="round" stroke-linejoin="round"/><path d="M369.45810364532787 315.87066032964185 q4 -7 12 -2 l-2 6 q-8 4 -10 -4" fill="#a84430" stroke="none" stroke-width="3" stroke-linecap="round" stroke-linejoin="round"/><path d="M390.83813444213536 269.78419487396286 q4 -7 12 -2 l-2 6 q-8 4 -10 -4" fill="#a84430" stroke="none" stroke-width="3" stroke-linecap="round" stroke-linejoin="round"/><path d="M411.3708593815873 328.4817288028776 q4 -7 12 -2 l-2 6 q-8 4 -10 -4" fill="#d66543" stroke="none" stroke-width="3" stroke-linecap="round" stroke-linejoin="round"/><path d="M345.11159866022774 292.9117396144484 q4 -7 12 -2 l-2 6 q-8 4 -10 -4" fill="#a84430" stroke="none" stroke-width="3" stroke-linecap="round" stroke-linejoin="round"/><path d="M357.11159866022774 301.9117396144484L361.11159866022774 300.9117396144484" fill="none" stroke="#edb86e" stroke-width="2" stroke-linecap="round" stroke-linejoin="round"/><path d="M428.6276378249754 275.8528492915574 q4 -7 12 -2 l-2 6 q-8 4 -10 -4" fill="#a84430" stroke="none" stroke-width="3" stroke-linecap="round" stroke-linejoin="round"/><path d="M374.4108501774257 347.2319572643809 q4 -7 12 -2 l-2 6 q-8 4 -10 -4" fill="#d66543" stroke="none" stroke-width="3" stroke-linecap="round" stroke-linejoin="round"/><path d="M362.08401777659805 253.37659246917895 q4 -7 12 -2 l-2 6 q-8 4 -10 -4" fill="#a84430" stroke="none" stroke-width="3" stroke-linecap="round" stroke-linejoin="round"/><path d="M444.2273152546847 319.1859253300599 q4 -7 12 -2 l-2 6 q-8 4 -10 -4" fill="#a84430" stroke="none" stroke-width="3" stroke-linecap="round" stroke-linejoin="round"/><path d="M456.2273152546847 328.1859253300599L460.2273152546847 327.1859253300599" fill="none" stroke="#edb86e" stroke-width="2" stroke-linecap="round" stroke-linejoin="round"/><path d="M329.50484760975075 322.56060835596173 q4 -7 12 -2 l-2 6 q-8 4 -10 -4" fill="#d66543" stroke="none" stroke-width="3" stroke-linecap="round" stroke-linejoin="round"/><path d="M416.1985288894147 243.69775598879687 q4 -7 12 -2 l-2 6 q-8 4 -10 -4" fill="#a84430" stroke="none" stroke-width="3" stroke-linecap="round" stroke-linejoin="round"/><path d="M408.83799526443346 362.0729315256284 q4 -7 12 -2 l-2 6 q-8 4 -10 -4" fill="#a84430" stroke="none" stroke-width="3" stroke-linecap="round" stroke-linejoin="round"/><path d="M325.1940398602649 265.9923862615444 q4 -7 12 -2 l-2 6 q-8 4 -10 -4" fill="#d66543" stroke="none" stroke-width="3" stroke-linecap="round" stroke-linejoin="round"/><path d="M337.1940398602649 274.9923862615444L341.1940398602649 273.9923862615444" fill="none" stroke="#edb86e" stroke-width="2" stroke-linecap="round" stroke-linejoin="round"/><path d="M461.67854074667855 284.86548615234284 q4 -7 12 -2 l-2 6 q-8 4 -10 -4" fill="#a84430" stroke="none" stroke-width="3" stroke-linecap="round" stroke-linejoin="round"/><path d="M343.0351332981149 359.75863957850595 q4 -7 12 -2 l-2 6 q-8 4 -10 -4" fill="#a84430" stroke="none" stroke-width="3" stroke-linecap="round" stroke-linejoin="round"/><path d="M377.6120749817592 225.10031792485725 q4 -7 12 -2 l-2 6 q-8 4 -10 -4" fill="#d66543" stroke="none" stroke-width="3" stroke-linecap="round" stroke-linejoin="round"/><path d="M451.77167275148736 350.21800126082087 q4 -7 12 -2 l-2 6 q-8 4 -10 -4" fill="#a84430" stroke="none" stroke-width="3" stroke-linecap="round" stroke-linejoin="round"/><path d="M463.77167275148736 359.21800126082087L467.77167275148736 358.21800126082087" fill="none" stroke="#edb86e" stroke-width="2" stroke-linecap="round" stroke-linejoin="round"/><path d="M302.183318217837 303.31578753430705 q4 -7 12 -2 l-2 6 q-8 4 -10 -4" fill="#a84430" stroke="none" stroke-width="3" stroke-linecap="round" stroke-linejoin="round"/><path d="M450.5966819810228 241.79782402312014 q4 -7 12 -2 l-2 6 q-8 4 -10 -4" fill="#d66543" stroke="none" stroke-width="3" stroke-linecap="round" stroke-linejoin="round"/><path d="M383.8120390129415 384.62209023970706 q4 -7 12 -2 l-2 6 q-8 4 -10 -4" fill="#a84430" stroke="none" stroke-width="3" stroke-linecap="round" stroke-linejoin="round"/><path d="M328.4390568107228 233.31224956899698 q4 -7 12 -2 l-2 6 q-8 4 -10 -4" fill="#a84430" stroke="none" stroke-width="3" stroke-linecap="round" stroke-linejoin="round"/><path d="M340.4390568107228 242.31224956899698L344.4390568107228 241.31224956899698" fill="none" stroke="#edb86e" stroke-width="2" stroke-linecap="round" stroke-linejoin="round"/><path d="M482.3511109890808 311.8613115188942 q4 -7 12 -2 l-2 6 q-8 4 -10 -4" fill="#d66543" stroke="none" stroke-width="3" stroke-linecap="round" stroke-linejoin="round"/><path d="M308.05649409017315 351.97061902093475 q4 -7 12 -2 l-2 6 q-8 4 -10 -4" fill="#a84430" stroke="none" stroke-width="3" stroke-linecap="round" stroke-linejoin="round"/><path d="M409.84516453308515 209.27156774925868 q4 -7 12 -2 l-2 6 q-8 4 -10 -4" fill="#a84430" stroke="none" stroke-width="3" stroke-linecap="round" stroke-linejoin="round"/><path d="M438.5267271092843 382.3865519902506 q4 -7 12 -2 l-2 6 q-8 4 -10 -4" fill="#d66543" stroke="none" stroke-width="3" stroke-linecap="round" stroke-linejoin="round"/><path d="M450.5267271092843 391.3865519902506L454.5267271092843 390.3865519902506" fill="none" stroke="#edb86e" stroke-width="2" stroke-linecap="round" stroke-linejoin="round"/><path d="M289.2250819795989 270.55706906999984 q4 -7 12 -2 l-2 6 q-8 4 -10 -4" fill="#a84430" stroke="none" stroke-width="3" stroke-linecap="round" stroke-linejoin="round"/><path d="M483.94726311193654 258.5804916986865 q4 -7 12 -2 l-2 6 q-8 4 -10 -4" fill="#a84430" stroke="none" stroke-width="3" stroke-linecap="round" stroke-linejoin="round"/><path d="M346.4332476244964 392.8005107915916 q4 -7 12 -2 l-2 6 q-8 4 -10 -4" fill="#d66543" stroke="none" stroke-width="3" stroke-linecap="round" stroke-linejoin="round"/><path d="M350.90259082477786 203.63158416710064 q4 -7 12 -2 l-2 6 q-8 4 -10 -4" fill="#a84430" stroke="none" stroke-width="3" stroke-linecap="round" stroke-linejoin="round"/><path d="M362.90259082477786 212.63158416710064L366.90259082477786 211.63158416710064" fill="none" stroke="#edb86e" stroke-width="2" stroke-linecap="round" stroke-linejoin="round"/><path d="M486.71222592649553 348.4740928118709 q4 -7 12 -2 l-2 6 q-8 4 -10 -4" fill="#a84430" stroke="none" stroke-width="3" stroke-linecap="round" stroke-linejoin="round"/><path d="M278.35555354365613 327.00432223152035 q4 -7 12 -2 l-2 6 q-8 4 -10 -4" fill="#d66543" stroke="none" stroke-width="3" stroke-linecap="round" stroke-linejoin="round"/><path d="M450.3226607675739 209.4377768431607 q4 -7 12 -2 l-2 6 q-8 4 -10 -4" fill="#a84430" stroke="none" stroke-width="3" stroke-linecap="round" stroke-linejoin="round"/><path d="M407.82520510853453 407.7832433605917 q4 -7 12 -2 l-2 6 q-8 4 -10 -4" fill="#a84430" stroke="none" stroke-width="3" stroke-linecap="round" stroke-linejoin="round"/><path d="M419.82520510853453 416.7832433605917L423.82520510853453 415.7832433605917" fill="none" stroke="#edb86e" stroke-width="2" stroke-linecap="round" stroke-linejoin="round"/><path d="M294.04591728610194 232.01406602634935 q4 -7 12 -2 l-2 6 q-8 4 -10 -4" fill="#d66543" stroke="none" stroke-width="3" stroke-linecap="round" stroke-linejoin="round"/><path d="M508.1843458307187 290.69671788188174 q4 -7 12 -2 l-2 6 q-8 4 -10 -4" fill="#a84430" stroke="none" stroke-width="3" stroke-linecap="round" stroke-linejoin="round"/><path d="M304.92728220978756 383.903266814486 q4 -7 12 -2 l-2 6 q-8 4 -10 -4" fill="#a84430" stroke="none" stroke-width="3" stroke-linecap="round" stroke-linejoin="round"/><path d="M388.60511440183006 184.10318031414735 q4 -7 12 -2 l-2 6 q-8 4 -10 -4" fill="#d66543" stroke="none" stroke-width="3" stroke-linecap="round" stroke-linejoin="round"/><path d="M400.60511440183006 193.10318031414735L404.60511440183006 192.10318031414735" fill="none" stroke="#edb86e" stroke-width="2" stroke-linecap="round" stroke-linejoin="round"/><path d="M472.47620558003047 387.0085730572549 q4 -7 12 -2 l-2 6 q-8 4 -10 -4" fill="#a84430" stroke="none" stroke-width="3" stroke-linecap="round" stroke-linejoin="round"/><path d="M261.14813687689724 289.01529472679425 q4 -7 12 -2 l-2 6 q-8 4 -10 -4" fill="#a84430" stroke="none" stroke-width="3" stroke-linecap="round" stroke-linejoin="round"/><path d="M490.78753639404584 227.10993108265097 q4 -7 12 -2 l-2 6 q-8 4 -10 -4" fill="#d66543" stroke="none" stroke-width="3" stroke-linecap="round" stroke-linejoin="round"/><path d="M364.6135419489799 420.1123224425061 q4 -7 12 -2 l-2 6 q-8 4 -10 -4" fill="#a84430" stroke="none" stroke-width="3" stroke-linecap="round" stroke-linejoin="round"/><path d="M376.6135419489799 429.1123224425061L380.6135419489799 428.1123224425061" fill="none" stroke="#edb86e" stroke-width="2" stroke-linecap="round" stroke-linejoin="round"/><path d="M317.55446362555875 195.40491821447824 q4 -7 12 -2 l-2 6 q-8 4 -10 -4" fill="#a84430" stroke="none" stroke-width="3" stroke-linecap="round" stroke-linejoin="round"/><path d="M517.0898558745615 333.0553694332922 q4 -7 12 -2 l-2 6 q-8 4 -10 -4" fill="#d66543" stroke="none" stroke-width="3" stroke-linecap="round" stroke-linejoin="round"/><path d="M267.5226930763452 357.76761695449244 q4 -7 12 -2 l-2 6 q-8 4 -10 -4" fill="#a84430" stroke="none" stroke-width="3" stroke-linecap="round" stroke-linejoin="round"/><path d="M435.6106944563086 180.01005699543683 q4 -7 12 -2 l-2 6 q-8 4 -10 -4" fill="#a84430" stroke="none" stroke-width="3" stroke-linecap="round" stroke-linejoin="round"/><path d="M447.6106944563086 189.01005699543683L451.6106944563086 188.01005699543683" fill="none" stroke="#edb86e" stroke-width="2" stroke-linecap="round" stroke-linejoin="round"/><path d="M440.21795813292624 419.85021200969993 q4 -7 12 -2 l-2 6 q-8 4 -10 -4" fill="#d66543" stroke="none" stroke-width="3" stroke-linecap="round" stroke-linejoin="round"/><path d="M261.48172623332357 243.97735356816938 q4 -7 12 -2 l-2 6 q-8 4 -10 -4" fill="#a84430" stroke="none" stroke-width="3" stroke-linecap="round" stroke-linejoin="round"/><path d="M523.2235897966934 261.04640364834523 q4 -7 12 -2 l-2 6 q-8 4 -10 -4" fill="#a84430" stroke="none" stroke-width="3" stroke-linecap="round" stroke-linejoin="round"/><path d="M315.7029024911419 415.2626391863646 q4 -7 12 -2 l-2 6 q-8 4 -10 -4" fill="#d66543" stroke="none" stroke-width="3" stroke-linecap="round" stroke-linejoin="round"/><path d="M327.7029024911419 424.2626391863646L331.7029024911419 423.2626391863646" fill="none" stroke="#edb86e" stroke-width="2" stroke-linecap="round" stroke-linejoin="round"/><path d="M357.67176834981683 168.03959840473482 q4 -7 12 -2 l-2 6 q-8 4 -10 -4" fill="#a84430" stroke="none" stroke-width="3" stroke-linecap="round" stroke-linejoin="round"/><path d="M506.9484096146798 378.9477044044015 q4 -7 12 -2 l-2 6 q-8 4 -10 -4" fill="#a84430" stroke="none" stroke-width="3" stroke-linecap="round" stroke-linejoin="round"/><path d="M241.78885057085085 317.0256171897314 q4 -7 12 -2 l-2 6 q-8 4 -10 -4" fill="#d66543" stroke="none" stroke-width="3" stroke-linecap="round" stroke-linejoin="round"/><path d="M484.4255124632005 194.1532354188519 q4 -7 12 -2 l-2 6 q-8 4 -10 -4" fill="#a84430" stroke="none" stroke-width="3" stroke-linecap="round" stroke-linejoin="round"/><path d="M496.4255124632005 203.1532354188519L500.4255124632005 202.1532354188519" fill="none" stroke="#edb86e" stroke-width="2" stroke-linecap="round" stroke-linejoin="round"/><path d="M393.4728962649312 440.22277534323064 q4 -7 12 -2 l-2 6 q-8 4 -10 -4" fill="#a84430" stroke="none" stroke-width="3" stroke-linecap="round" stroke-linejoin="round"/><path d="M281.60880955568916 199.12854206384367 q4 -7 12 -2 l-2 6 q-8 4 -10 -4" fill="#d66543" stroke="none" stroke-width="3" stroke-linecap="round" stroke-linejoin="round"/><path d="M540.7577489876544 307.29779094697614 q4 -7 12 -2 l-2 6 q-8 4 -10 -4" fill="#a84430" stroke="none" stroke-width="3" stroke-linecap="round" stroke-linejoin="round"/><path d="M269.0276466091873 391.84678177467254 q4 -7 12 -2 l-2 6 q-8 4 -10 -4" fill="#a84430" stroke="none" stroke-width="3" stroke-linecap="round" stroke-linejoin="round"/><path d="M281.0276466091873 400.84678177467254L285.0276466091873 399.84678177467254" fill="none" stroke="#edb86e" stroke-width="2" stroke-linecap="round" stroke-linejoin="round"/><path d="M409.5131114929913 155.92854976352464 q4 -7 12 -2 l-2 6 q-8 4 -10 -4" fill="#d66543" stroke="none" stroke-width="3" stroke-linecap="round" stroke-linejoin="round"/><path d="M477.0588582945875 420.8489362588489 q4 -7 12 -2 l-2 6 q-8 4 -10 -4" fill="#a84430" stroke="none" stroke-width="3" stroke-linecap="round" stroke-linejoin="round"/><path d="M233.65969028776863 266.8183372010341 q4 -7 12 -2 l-2 6 q-8 4 -10 -4" fill="#a84430" stroke="none" stroke-width="3" stroke-linecap="round" stroke-linejoin="round"/><path d="M526.9477759069082 226.44638052947136 q4 -7 12 -2 l-2 6 q-8 4 -10 -4" fill="#d66543" stroke="none" stroke-width="3" stroke-linecap="round" stroke-linejoin="round"/><path d="M538.9477759069082 235.44638052947136L542.9477759069082 234.44638052947136" fill="none" stroke="#edb86e" stroke-width="2" stroke-linecap="round" stroke-linejoin="round"/><path d="M338.31475096898953 443.0998195544598 q4 -7 12 -2 l-2 6 q-8 4 -10 -4" fill="#a84430" stroke="none" stroke-width="3" stroke-linecap="round" stroke-linejoin="round"/><path d="M320.64026357777095 162.01597907932182 q4 -7 12 -2 l-2 6 q-8 4 -10 -4" fill="#a84430" stroke="none" stroke-width="3" stroke-linecap="round" stroke-linejoin="round"/><path d="M538.6161722322564 359.70367721616435 q4 -7 12 -2 l-2 6 q-8 4 -10 -4" fill="#d66543" stroke="none" stroke-width="3" stroke-linecap="round" stroke-linejoin="round"/><path d="M232.56751019570115 351.4365359910531 q4 -7 12 -2 l-2 6 q-8 4 -10 -4" fill="#a84430" stroke="none" stroke-width="3" stroke-linecap="round" stroke-linejoin="round"/><path d="M244.56751019570115 360.4365359910531L248.56751019570115 359.4365359910531" fill="none" stroke="#edb86e" stroke-width="2" stroke-linecap="round" stroke-linejoin="round"/><path d="M466.02255042470716 162.92222993690385 q4 -7 12 -2 l-2 6 q-8 4 -10 -4" fill="#a84430" stroke="none" stroke-width="3" stroke-linecap="round" stroke-linejoin="round"/><path d="M429.88608344677317 451.46316242140426 q4 -7 12 -2 l-2 6 q-8 4 -10 -4" fill="#d66543" stroke="none" stroke-width="3" stroke-linecap="round" stroke-linejoin="round"/><path d="M246.56152314243076 214.11318469370013 q4 -7 12 -2 l-2 6 q-8 4 -10 -4" fill="#a84430" stroke="none" stroke-width="3" stroke-linecap="round" stroke-linejoin="round"/><path d="M555.6127696969658 273.8713744384728 q4 -7 12 -2 l-2 6 q-8 4 -10 -4" fill="#a84430" stroke="none" stroke-width="3" stroke-linecap="round" stroke-linejoin="round"/><path d="M567.6127696969658 282.8713744384728L571.6127696969658 281.8713744384728" fill="none" stroke="#edb86e" stroke-width="2" stroke-linecap="round" stroke-linejoin="round"/><path d="M282.5359542538598 425.96303789710504 q4 -7 12 -2 l-2 6 q-8 4 -10 -4" fill="#d66543" stroke="none" stroke-width="3" stroke-linecap="round" stroke-linejoin="round"/><path d="M374.60468093709613 139.41322562694234 q4 -7 12 -2 l-2 6 q-8 4 -10 -4" fill="#a84430" stroke="none" stroke-width="3" stroke-linecap="round" stroke-linejoin="round"/><path d="M514.864944181163 410.7344626141951 q4 -7 12 -2 l-2 6 q-8 4 -10 -4" fill="#a84430" stroke="none" stroke-width="3" stroke-linecap="round" stroke-linejoin="round"/><path d="M213.18767523431 298.40635557960553 q4 -7 12 -2 l-2 6 q-8 4 -10 -4" fill="#d66543" stroke="none" stroke-width="3" stroke-linecap="round" stroke-linejoin="round"/><path d="M225.18767523431 307.40635557960553L229.18767523431 306.40635557960553" fill="none" stroke="#edb86e" stroke-width="2" stroke-linecap="round" stroke-linejoin="round"/><path d="M518.9471521579526 190.09384549023304 q4 -7 12 -2 l-2 6 q-8 4 -10 -4" fill="#a84430" stroke="none" stroke-width="3" stroke-linecap="round" stroke-linejoin="round"/><path d="M370.785162636303 464.79711063817024 q4 -7 12 -2 l-2 6 q-8 4 -10 -4" fill="#a84430" stroke="none" stroke-width="3" stroke-linecap="round" stroke-linejoin="round"/><path d="M280.84039919386817 166.73326522982467 q4 -7 12 -2 l-2 6 q-8 4 -10 -4" fill="#d66543" stroke="none" stroke-width="3" stroke-linecap="round" stroke-linejoin="round"/><path d="M564.5198168237382 330.83624780089923 q4 -7 12 -2 l-2 6 q-8 4 -10 -4" fill="#a84430" stroke="none" stroke-width="3" stroke-linecap="round" stroke-linejoin="round"/><path d="M576.5198168237382 339.83624780089923L580.5198168237382 338.83624780089923" fill="none" stroke="#edb86e" stroke-width="2" stroke-linecap="round" stroke-linejoin="round"/><path d="M234.5533009846792 389.248681270214 q4 -7 12 -2 l-2 6 q-8 4 -10 -4" fill="#a84430" stroke="none" stroke-width="3" stroke-linecap="round" stroke-linejoin="round"/><path d="M436.93654219503327 136.29843537879447 q4 -7 12 -2 l-2 6 q-8 4 -10 -4" fill="#d66543" stroke="none" stroke-width="3" stroke-linecap="round" stroke-linejoin="round"/><path d="M470.7872605442093 452.556757269248 q4 -7 12 -2 l-2 6 q-8 4 -10 -4" fill="#a84430" stroke="none" stroke-width="3" stroke-linecap="round" stroke-linejoin="round"/><path d="M215.58902545812097 239.38205453888645 q4 -7 12 -2 l-2 6 q-8 4 -10 -4" fill="#a84430" stroke="none" stroke-width="3" stroke-linecap="round" stroke-linejoin="round"/><path d="M227.58902545812097 248.38205453888645L231.58902545812097 247.38205453888645" fill="none" stroke="#edb86e" stroke-width="2" stroke-linecap="round" stroke-linejoin="round"/><path d="M560.0132187182991 235.4853203740657 q4 -7 12 -2 l-2 6 q-8 4 -10 -4" fill="#d66543" stroke="none" stroke-width="3" stroke-linecap="round" stroke-linejoin="round"/><path d="M307.31365766435505 457.09049250852127 q4 -7 12 -2 l-2 6 q-8 4 -10 -4" fill="#a84430" stroke="none" stroke-width="3" stroke-linecap="round" stroke-linejoin="round"/><path d="M333.59916362931057 132.23437755816016 q4 -7 12 -2 l-2 6 q-8 4 -10 -4" fill="#a84430" stroke="none" stroke-width="3" stroke-linecap="round" stroke-linejoin="round"/><path d="M550.3644406185552 389.9041698659459 q4 -7 12 -2 l-2 6 q-8 4 -10 -4" fill="#d66543" stroke="none" stroke-width="3" stroke-linecap="round" stroke-linejoin="round"/><path d="M562.3644406185552 398.9041698659459L566.3644406185552 397.9041698659459" fill="none" stroke="#edb86e" stroke-width="2" stroke-linecap="round" stroke-linejoin="round"/><path d="M202.1908503379986 336.39560920044346 q4 -7 12 -2 l-2 6 q-8 4 -10 -4" fill="#a84430" stroke="none" stroke-width="3" stroke-linecap="round" stroke-linejoin="round"/><path d="M499.3428887404831 155.0511481110531 q4 -7 12 -2 l-2 6 q-8 4 -10 -4" fill="#a84430" stroke="none" stroke-width="3" stroke-linecap="round" stroke-linejoin="round"/><path d="M410.8218173036479 478.17478167865994 q4 -7 12 -2 l-2 6 q-8 4 -10 -4" fill="#d66543" stroke="none" stroke-width="3" stroke-linecap="round" stroke-linejoin="round"/><path d="M241.52929551129895 182.35668132648993 q4 -7 12 -2 l-2 6 q-8 4 -10 -4" fill="#a84430" stroke="none" stroke-width="3" stroke-linecap="round" stroke-linejoin="round"/><path d="M253.52929551129895 191.35668132648993L257.529295511299 190.35668132648993" fill="none" stroke="#edb86e" stroke-width="2" stroke-linecap="round" stroke-linejoin="round"/><path d="M582.1416578259372 294.27091707817897 q4 -7 12 -2 l-2 6 q-8 4 -10 -4" fill="#a84430" stroke="none" stroke-width="3" stroke-linecap="round" stroke-linejoin="round"/><path d="M248.21341832094492 427.4611595152434 q4 -7 12 -2 l-2 6 q-8 4 -10 -4" fill="#d66543" stroke="none" stroke-width="3" stroke-linecap="round" stroke-linejoin="round"/><path d="M398.98550956432274 116.78529187269876 q4 -7 12 -2 l-2 6 q-8 4 -10 -4" fill="#a84430" stroke="none" stroke-width="3" stroke-linecap="round" stroke-linejoin="round"/><path d="M513.0337102597776 442.8042298195496 q4 -7 12 -2 l-2 6 q-8 4 -10 -4" fill="#a84430" stroke="none" stroke-width="3" stroke-linecap="round" stroke-linejoin="round"/><path d="M525.0337102597776 451.8042298195496L529.0337102597776 450.8042298195496" fill="none" stroke="#edb86e" stroke-width="2" stroke-linecap="round" stroke-linejoin="round"/><ellipse cx="278" cy="219" rx="14" ry="10.08" fill="#973d2c" stroke="#e07851" stroke-width="3"/><path d="M270.3 217 Q278 209.9 285 217" fill="none" stroke="#ed946b" stroke-width="2" stroke-linecap="round" stroke-linejoin="round"/><ellipse cx="454" cy="185" rx="11" ry="7.92" fill="#973d2c" stroke="#e07851" stroke-width="3"/><path d="M447.95 183 Q454 177.85 459.5 183" fill="none" stroke="#ed946b" stroke-width="2" stroke-linecap="round" stroke-linejoin="round"/><ellipse cx="501" cy="334" rx="16" ry="11.52" fill="#973d2c" stroke="#e07851" stroke-width="3"/><path d="M492.2 332 Q501 323.6 509 332" fill="none" stroke="#ed946b" stroke-width="2" stroke-linecap="round" stroke-linejoin="round"/><ellipse cx="294" cy="390" rx="12" ry="8.64" fill="#973d2c" stroke="#e07851" stroke-width="3"/><path d="M287.4 388 Q294 382.2 300 388" fill="none" stroke="#ed946b" stroke-width="2" stroke-linecap="round" stroke-linejoin="round"/><ellipse cx="387" cy="437" rx="10" ry="7.199999999999999" fill="#973d2c" stroke="#e07851" stroke-width="3"/><path d="M381.5 435 Q387 430.5 392 435" fill="none" stroke="#ed946b" stroke-width="2" stroke-linecap="round" stroke-linejoin="round"/><path d="M284 304 C316 349 404 351 432 296 C451 259 417 234 385 259" fill="none" stroke="#773e2c" stroke-width="19" stroke-linecap="round" stroke-linejoin="round"/><path d="M280 293 C320 335 397 335 415 293" fill="none" stroke="#e16f46" stroke-width="9" stroke-linecap="round" stroke-linejoin="round"/><g transform="translate(418 276) rotate(-43)"><rect x="-9" y="14" width="18" height="222" rx="7" fill="#b68a54" stroke="#805e3e" stroke-width="3"/><ellipse cx="0" cy="-15" rx="32" ry="51" fill="#bb905c" stroke="#80603e" stroke-width="3"/><ellipse cx="0" cy="-20" rx="24" ry="38" fill="#b34b31" stroke="#a8462d" stroke-width="2"/><path d="M-14 -32 Q-4 -44 10 -28 M-10 -11 L8 -7" fill="none" stroke="#de7750" stroke-width="3" stroke-linecap="round" stroke-linejoin="round"/></g></svg>
