<svg xmlns="http://www.w3.org/2000/svg" width="800" height="600" viewBox="0 0 800 600" role="img" aria-labelledby="title desc"><title id="title">Whole Roasted Branzino with Citrus and Herbs: Roast until blistered</title><desc id="desc">Demo illustration. Roast the stuffed fish on a sheet pan at 425°F for about 18 minutes. The recipe asks for blistered skin and a fork check at the thickest point for flesh near the backbone that flakes when nudged; this illustration cannot verify doneness.</desc><rect width="800" height="600" fill="#faf8f2"/><rect x="79" y="80" width="642" height="440" rx="31" fill="#adb4b2" stroke="#748080" stroke-width="3"/><rect x="96" y="99" width="608" height="403" rx="22" fill="#d6c8a9" stroke="#8b9792" stroke-width="3"/><path d="M135 175Q388 97 656 182L654 261Q394 311 142 274Z" fill="#c6b488" stroke="none" stroke-width="3" stroke-linecap="round" stroke-linejoin="round"/><path d="M125 352Q370 286 656 359L661 440Q431 489 142 453Z" fill="#c9b389" stroke="none" stroke-width="3" stroke-linecap="round" stroke-linejoin="round"/><g transform="translate(387 214) scale(1.19)"><path d="M128 -17L207 -62L194 -13L213 44L128 20Z" fill="#b59b62" stroke="#6d796f" stroke-width="2" stroke-linecap="round" stroke-linejoin="round"/><path d="M139 0L198 -37" fill="none" stroke="#84744b" stroke-width="2" stroke-linecap="round" stroke-linejoin="round"/><path d="M139 0L198 -20" fill="none" stroke="#84744b" stroke-width="2" stroke-linecap="round" stroke-linejoin="round"/><path d="M139 0L198 0" fill="none" stroke="#84744b" stroke-width="2" stroke-linecap="round" stroke-linejoin="round"/><path d="M139 0L198 21" fill="none" stroke="#84744b" stroke-width="2" stroke-linecap="round" stroke-linejoin="round"/><path d="M139 0L198 32" fill="none" stroke="#84744b" stroke-width="2" stroke-linecap="round" stroke-linejoin="round"/><path d="M-78 -40Q-7 -89 62 -47L21 -30Z" fill="#b29858" stroke="#6d796f" stroke-width="2" stroke-linecap="round" stroke-linejoin="round"/><path d="M-19 38L54 81L74 40Z" fill="#b99b60" stroke="#6d796f" stroke-width="2" stroke-linecap="round" stroke-linejoin="round"/><path d="M-193 -4Q-165 -43 -125 -50Q-21 -83 89 -42Q131 -28 151 0Q120 34 88 47Q-40 81 -140 44Q-179 26 -193 -4Z" fill="#c6af78" stroke="#69776e" stroke-width="3" stroke-linecap="round" stroke-linejoin="round"/><path d="M-122 -41Q-26 -63 83 -31Q-7 -29 -97 -7Z" fill="#ab975e" stroke="none" stroke-width="3" stroke-linecap="round" stroke-linejoin="round"/><path d="M-130 31Q-22 58 94 28Q35 66 -75 53Z" fill="#eee0b2" stroke="none" stroke-width="3" stroke-linecap="round" stroke-linejoin="round"/><path d="M-126 -42Q-96 -8 -123 39M-186 6l25 5" fill="none" stroke="#6c796b" stroke-width="3" stroke-linecap="round" stroke-linejoin="round"/><ellipse cx="-150" cy="-13" rx="10" ry="10" fill="#ded5b2" stroke="#6b766b" stroke-width="2"/><ellipse cx="-150" cy="-13" rx="5" ry="5" fill="#374a44" stroke="none" stroke-width="3"/><path d="M-69 -33q25 25 5 65" fill="none" stroke="#f1e5c1" stroke-width="7" stroke-linecap="round" stroke-linejoin="round"/><path d="M-65 -32q19 22 4 61" fill="none" stroke="#79806b" stroke-width="2" stroke-linecap="round" stroke-linejoin="round"/><path d="M-16 -33q25 25 5 65" fill="none" stroke="#f1e5c1" stroke-width="7" stroke-linecap="round" stroke-linejoin="round"/><path d="M-12 -32q19 22 4 61" fill="none" stroke="#79806b" stroke-width="2" stroke-linecap="round" stroke-linejoin="round"/><path d="M37 -33q25 25 5 65" fill="none" stroke="#f1e5c1" stroke-width="7" stroke-linecap="round" stroke-linejoin="round"/><path d="M41 -32q19 22 4 61" fill="none" stroke="#79806b" stroke-width="2" stroke-linecap="round" stroke-linejoin="round"/><ellipse cx="5.001666493091715" cy="1" rx="3" ry="1.9500000000000002" fill="#8a784b" stroke="none" stroke-width="3"/><ellipse cx="-13.219411267472191" cy="4.821150140452319" rx="3" ry="1.9500000000000002" fill="#8a784b" stroke="none" stroke-width="3"/><ellipse cx="-1.4357553002257686" cy="-6.275004669187731" rx="3" ry="1.9500000000000002" fill="#8a784b" stroke="none" stroke-width="3"/><ellipse cx="9.880905983196287" cy="7.8574942538573636" rx="3" ry="1.9500000000000002" fill="#8a784b" stroke="none" stroke-width="3"/><ellipse cx="-26.638046697693813" cy="-0.7066276138003884" rx="3" ry="1.9500000000000002" fill="#8a784b" stroke="none" stroke-width="3"/><ellipse cx="19.392021388616747" cy="-4.8138657374422715" rx="3" ry="1.9500000000000002" fill="#8a784b" stroke="none" stroke-width="3"/><ellipse cx="-10.489692971840554" cy="12.371952797549437" rx="3" ry="1.9500000000000002" fill="#8a784b" stroke="none" stroke-width="3"/><ellipse cx="-17.283656626885858" cy="-10.225433380488928" rx="3" ry="1.9500000000000002" fill="#8a784b" stroke="none" stroke-width="3"/><ellipse cx="27.989821540483785" cy="5.61936048954055" rx="3" ry="1.9500000000000002" fill="#8a784b" stroke="none" stroke-width="3"/><ellipse cx="-35.239745492849124" cy="6.431876808998442" rx="3" ry="1.9500000000000002" fill="#8a784b" stroke="none" stroke-width="3"/><ellipse cx="12.541687772729471" cy="-12.555789308235111" rx="3" ry="1.9500000000000002" fill="#8a784b" stroke="none" stroke-width="3"/><ellipse cx="8.484911765415236" cy="15.945187288423012" rx="3" ry="1.9500000000000002" fill="#8a784b" stroke="none" stroke-width="3"/><ellipse cx="-37.615657667328605" cy="-7.187951560556181" rx="3" ry="1.9500000000000002" fill="#8a784b" stroke="none" stroke-width="3"/><ellipse cx="37.60810690961445" cy="-2.6439094853942864" rx="3" ry="1.9500000000000002" fill="#8a784b" stroke="none" stroke-width="3"/><ellipse cx="-27.782495631728782" cy="15.387979408277156" rx="3" ry="1.9500000000000002" fill="#8a784b" stroke="none" stroke-width="3"/><ellipse cx="-8.725330135950053" cy="-17.033460784660683" rx="3" ry="1.9500000000000002" fill="#8a784b" stroke="none" stroke-width="3"/><ellipse cx="32.147912521789294" cy="13.090897201840068" rx="3" ry="1.9500000000000002" fill="#8a784b" stroke="none" stroke-width="3"/><ellipse cx="-50.29807285977682" cy="1.7983361586262034" rx="3" ry="1.9500000000000002" fill="#8a784b" stroke="none" stroke-width="3"/><ellipse cx="31.500313501215757" cy="-13.013232486193873" rx="3" ry="1.9500000000000002" fill="#8a784b" stroke="none" stroke-width="3"/><ellipse cx="-5.308204882619526" cy="21.37430738788443" rx="3" ry="1.9500000000000002" fill="#8a784b" stroke="none" stroke-width="3"/><ellipse cx="-35.82715868360458" cy="-15.056288877277453" rx="3" ry="1.9500000000000002" fill="#8a784b" stroke="none" stroke-width="3"/><ellipse cx="49.00184427184401" cy="3.8558264895707737" rx="3" ry="1.9500000000000002" fill="#8a784b" stroke="none" stroke-width="3"/><ellipse cx="-47.06105769490269" cy="13.51287180536115" rx="3" ry="1.9500000000000002" fill="#8a784b" stroke="none" stroke-width="3"/><ellipse cx="9.040015557143496" cy="-20.844520293237434" rx="3" ry="1.9500000000000002" fill="#8a784b" stroke="none" stroke-width="3"/><ellipse cx="24.84792852102227" cy="20.83606089287612" rx="3" ry="1.9500000000000002" fill="#8a784b" stroke="none" stroke-width="3"/><ellipse cx="-57.44003627530681" cy="-6.088921148943599" rx="3" ry="1.9500000000000002" fill="#8a784b" stroke="none" stroke-width="3"/><ellipse cx="49.881567396000165" cy="-8.97249998901603" rx="3" ry="1.9500000000000002" fill="#8a784b" stroke="none" stroke-width="3"/><ellipse cx="-25.9096166569506" cy="23.34341089028526" rx="3" ry="1.9500000000000002" fill="#8a784b" stroke="none" stroke-width="3"/><ellipse cx="-23.44632728322656" cy="-22.20244892440222" rx="3" ry="1.9500000000000002" fill="#8a784b" stroke="none" stroke-width="3"/><ellipse cx="51.40548337529134" cy="12.671019523392419" rx="3" ry="1.9500000000000002" fill="#8a784b" stroke="none" stroke-width="3"/><ellipse cx="-63.430803306123096" cy="7.501781749752966" rx="3" ry="1.9500000000000002" fill="#8a784b" stroke="none" stroke-width="3"/><ellipse cx="31.349286043037765" cy="-20.80450243075933" rx="3" ry="1.9500000000000002" fill="#8a784b" stroke="none" stroke-width="3"/><ellipse cx="7.926710008011369" cy="26.95077627214435" rx="3" ry="1.9500000000000002" fill="#8a784b" stroke="none" stroke-width="3"/><ellipse cx="-54.78302117245344" cy="-15.368850177392734" rx="3" ry="1.9500000000000002" fill="#8a784b" stroke="none" stroke-width="3"/><ellipse cx="63.23989447803923" cy="-1.2399343841994663" rx="3" ry="1.9500000000000002" fill="#8a784b" stroke="none" stroke-width="3"/><ellipse cx="-48.78573043263283" cy="21.201237573825473" rx="3" ry="1.9500000000000002" fill="#8a784b" stroke="none" stroke-width="3"/><ellipse cx="-2.6664897258681024" cy="-26.90426734755578" rx="3" ry="1.9500000000000002" fill="#8a784b" stroke="none" stroke-width="3"/><ellipse cx="43.55926614109943" cy="21.9488965331406" rx="3" ry="1.9500000000000002" fill="#8a784b" stroke="none" stroke-width="3"/><ellipse cx="-72.91471284831266" cy="-1.6447675916257665" rx="3" ry="1.9500000000000002" fill="#8a784b" stroke="none" stroke-width="3"/><ellipse cx="53.65160065013181" cy="-16.54960986474552" rx="3" ry="1.9500000000000002" fill="#8a784b" stroke="none" stroke-width="3"/><ellipse cx="-15.889503227788204" cy="29.919226310578782" rx="3" ry="1.9500000000000002" fill="#8a784b" stroke="none" stroke-width="3"/><ellipse cx="-41.826228687589776" cy="-24.18316838455004" rx="3" ry="1.9500000000000002" fill="#8a784b" stroke="none" stroke-width="3"/><ellipse cx="68.14818799580024" cy="8.958681424037406" rx="3" ry="1.9500000000000002" fill="#8a784b" stroke="none" stroke-width="3"/><ellipse cx="-69.40136069685603" cy="14.908604497506524" rx="3" ry="1.9500000000000002" fill="#8a784b" stroke="none" stroke-width="3"/><ellipse cx="23.240750032904586" cy="-27.88976123497567" rx="3" ry="1.9500000000000002" fill="#8a784b" stroke="none" stroke-width="3"/><ellipse cx="25.780054612566822" cy="29.85611845644238" rx="3" ry="1.9500000000000002" fill="#8a784b" stroke="none" stroke-width="3"/><ellipse cx="-72.7308542632703" cy="-12.488471105495046" rx="3" ry="1.9500000000000002" fill="#8a784b" stroke="none" stroke-width="3"/><ellipse cx="71.52881036346419" cy="-8.378786835494436" rx="3" ry="1.9500000000000002" fill="#8a784b" stroke="none" stroke-width="3"/><ellipse cx="-42.84672110959089" cy="28.751576857408686" rx="3" ry="1.9500000000000002" fill="#8a784b" stroke="none" stroke-width="3"/><ellipse cx="-19.715478628500264" cy="-30.771866867323475" rx="3" ry="1.9500000000000002" fill="#8a784b" stroke="none" stroke-width="3"/><ellipse cx="62.558705226925625" cy="20.00809578854338" rx="3" ry="1.9500000000000002" fill="#8a784b" stroke="none" stroke-width="3"/><ellipse cx="-83.58463057527587" cy="5.099227011639909" rx="3" ry="1.9500000000000002" fill="#8a784b" stroke="none" stroke-width="3"/><ellipse cx="50.14515568899247" cy="-24.48453378403353" rx="3" ry="1.9500000000000002" fill="#8a784b" stroke="none" stroke-width="3"/><ellipse cx="0.01640008582245711" cy="34.76118362867719" rx="3" ry="1.9500000000000002" fill="#8a784b" stroke="none" stroke-width="3"/><ellipse cx="-61.637763343575564" cy="-23.28663821507627" rx="3" ry="1.9500000000000002" fill="#8a784b" stroke="none" stroke-width="3"/><ellipse cx="81.19280484246505" cy="2.757075907544105" rx="3" ry="1.9500000000000002" fill="#8a784b" stroke="none" stroke-width="3"/><ellipse cx="-68.5719018973696" cy="23.113783282406388" rx="3" ry="1.9500000000000002" fill="#8a784b" stroke="none" stroke-width="3"/><ellipse cx="8.857003716583886" cy="-33.687822111476166" rx="3" ry="1.9500000000000002" fill="#8a784b" stroke="none" stroke-width="3"/><ellipse cx="46.08500632917116" cy="30.09657948488369" rx="3" ry="1.9500000000000002" fill="#8a784b" stroke="none" stroke-width="3"/><ellipse cx="-88.06503703440727" cy="-6.989088848930803" rx="3" ry="1.9500000000000002" fill="#8a784b" stroke="none" stroke-width="3"/><ellipse cx="73.5814045948683" cy="-16.709371729520853" rx="3" ry="1.9500000000000002" fill="#8a784b" stroke="none" stroke-width="3"/><ellipse cx="-30.38414583181124" cy="35.45388435211798" rx="3" ry="1.9500000000000002" fill="#8a784b" stroke="none" stroke-width="3"/><ellipse cx="-40.12548253964486" cy="-32.222162781498135" rx="3" ry="1.9500000000000002" fill="#8a784b" stroke="none" stroke-width="3"/><ellipse cx="80.01246960567816" cy="15.374746219851536" rx="3" ry="1.9500000000000002" fill="#8a784b" stroke="none" stroke-width="3"/><ellipse cx="-88.66699474819691" cy="13.38428160166095" rx="3" ry="1.9500000000000002" fill="#8a784b" stroke="none" stroke-width="3"/><ellipse cx="40.00231840775323" cy="-32.00396640404388" rx="3" ry="1.9500000000000002" fill="#8a784b" stroke="none" stroke-width="3"/><ellipse cx="20.085616753454417" cy="37.46751126535913" rx="3" ry="1.9500000000000002" fill="#8a784b" stroke="none" stroke-width="3"/><ellipse cx="-80.95416048090122" cy="-19.67881295132456" rx="3" ry="1.9500000000000002" fill="#8a784b" stroke="none" stroke-width="3"/><ellipse cx="89.38018563197186" cy="-5.290941848700568" rx="3" ry="1.9500000000000002" fill="#8a784b" stroke="none" stroke-width="3"/><ellipse cx="-61.126765288477756" cy="31.32789247296471" rx="3" ry="1.9500000000000002" fill="#8a784b" stroke="none" stroke-width="3"/><ellipse cx="-10.3828626772758" cy="-37.6641867890221" rx="3" ry="1.9500000000000002" fill="#8a784b" stroke="none" stroke-width="3"/><ellipse cx="66.92192250527407" cy="27.661335986181566" rx="3" ry="1.9500000000000002" fill="#8a784b" stroke="none" stroke-width="3"/><ellipse cx="-99.34823791652518" cy="0.616301119528849" rx="3" ry="1.9500000000000002" fill="#8a784b" stroke="none" stroke-width="3"/><ellipse cx="69.1718413591057" cy="-25.461905744223593" rx="3" ry="1.9500000000000002" fill="#8a784b" stroke="none" stroke-width="3"/><ellipse cx="-12.487999477353185" cy="40.677901825235054" rx="3" ry="1.9500000000000002" fill="#8a784b" stroke="none" stroke-width="3"/><path d="M-66 35Q-7 24 77 40" fill="none" stroke="#71806a" stroke-width="3" stroke-linecap="round" stroke-linejoin="round"/></g><g transform="translate(387 214) scale(1.1)"><ellipse cx="-29" cy="33" rx="22" ry="22" fill="#f6d26f" stroke="#c8a449" stroke-width="2"/><ellipse cx="-29" cy="33" rx="17" ry="17" fill="#fff0b7" stroke="#fff8da" stroke-width="2"/><path d="M-29 33L-14 33" fill="none" stroke="#e8c976" stroke-width="2" stroke-linecap="round" stroke-linejoin="round"/><path d="M-29 33L-18.393398282201787 43.60660171779821" fill="none" stroke="#e8c976" stroke-width="2" stroke-linecap="round" stroke-linejoin="round"/><path d="M-29 33L-29 48" fill="none" stroke="#e8c976" stroke-width="2" stroke-linecap="round" stroke-linejoin="round"/><path d="M-29 33L-39.60660171779821 43.60660171779821" fill="none" stroke="#e8c976" stroke-width="2" stroke-linecap="round" stroke-linejoin="round"/><path d="M-29 33L-44 33" fill="none" stroke="#e8c976" stroke-width="2" stroke-linecap="round" stroke-linejoin="round"/><path d="M-29 33L-39.60660171779821 22.393398282201787" fill="none" stroke="#e8c976" stroke-width="2" stroke-linecap="round" stroke-linejoin="round"/><path d="M-29 33L-29.000000000000004 18" fill="none" stroke="#e8c976" stroke-width="2" stroke-linecap="round" stroke-linejoin="round"/><path d="M-29 33L-18.39339828220179 22.393398282201787" fill="none" stroke="#e8c976" stroke-width="2" stroke-linecap="round" stroke-linejoin="round"/><ellipse cx="9" cy="37" rx="22" ry="22" fill="#f6d26f" stroke="#c8a449" stroke-width="2"/><ellipse cx="9" cy="37" rx="17" ry="17" fill="#fff0b7" stroke="#fff8da" stroke-width="2"/><path d="M9 37L24 37" fill="none" stroke="#e8c976" stroke-width="2" stroke-linecap="round" stroke-linejoin="round"/><path d="M9 37L19.606601717798213 47.60660171779821" fill="none" stroke="#e8c976" stroke-width="2" stroke-linecap="round" stroke-linejoin="round"/><path d="M9 37L9.000000000000002 52" fill="none" stroke="#e8c976" stroke-width="2" stroke-linecap="round" stroke-linejoin="round"/><path d="M9 37L-1.6066017177982115 47.60660171779821" fill="none" stroke="#e8c976" stroke-width="2" stroke-linecap="round" stroke-linejoin="round"/><path d="M9 37L-6 37" fill="none" stroke="#e8c976" stroke-width="2" stroke-linecap="round" stroke-linejoin="round"/><path d="M9 37L-1.606601717798215 26.393398282201787" fill="none" stroke="#e8c976" stroke-width="2" stroke-linecap="round" stroke-linejoin="round"/><path d="M9 37L8.999999999999996 22" fill="none" stroke="#e8c976" stroke-width="2" stroke-linecap="round" stroke-linejoin="round"/><path d="M9 37L19.60660171779821 26.393398282201787" fill="none" stroke="#e8c976" stroke-width="2" stroke-linecap="round" stroke-linejoin="round"/><ellipse cx="45" cy="38" rx="22" ry="22" fill="#f6d26f" stroke="#c8a449" stroke-width="2"/><ellipse cx="45" cy="38" rx="17" ry="17" fill="#fff0b7" stroke="#fff8da" stroke-width="2"/><path d="M45 38L60 38" fill="none" stroke="#e8c976" stroke-width="2" stroke-linecap="round" stroke-linejoin="round"/><path d="M45 38L55.60660171779821 48.60660171779821" fill="none" stroke="#e8c976" stroke-width="2" stroke-linecap="round" stroke-linejoin="round"/><path d="M45 38L45 53" fill="none" stroke="#e8c976" stroke-width="2" stroke-linecap="round" stroke-linejoin="round"/><path d="M45 38L34.39339828220179 48.60660171779821" fill="none" stroke="#e8c976" stroke-width="2" stroke-linecap="round" stroke-linejoin="round"/><path d="M45 38L30 38" fill="none" stroke="#e8c976" stroke-width="2" stroke-linecap="round" stroke-linejoin="round"/><path d="M45 38L34.39339828220179 27.393398282201787" fill="none" stroke="#e8c976" stroke-width="2" stroke-linecap="round" stroke-linejoin="round"/><path d="M45 38L45 23" fill="none" stroke="#e8c976" stroke-width="2" stroke-linecap="round" stroke-linejoin="round"/><path d="M45 38L55.60660171779821 27.393398282201787" fill="none" stroke="#e8c976" stroke-width="2" stroke-linecap="round" stroke-linejoin="round"/><g transform="translate(-54 36) rotate(-72)"><path d="M0 30Q5 0 0 -33" fill="none" stroke="#59714a" stroke-width="3" stroke-linecap="round" stroke-linejoin="round"/><path d="M2 -12Q-25 -27 -14 -35Q0 -33 2 -12M2 -12Q24 -27 16 -35Q4 -33 2 -12" fill="#59714a" stroke="#59714a" stroke-width="1" stroke-linecap="round" stroke-linejoin="round"/><path d="M2 3Q-25 -12 -14 -20Q0 -18 2 3M2 3Q24 -12 16 -20Q4 -18 2 3" fill="#59714a" stroke="#59714a" stroke-width="1" stroke-linecap="round" stroke-linejoin="round"/><path d="M2 18Q-25 3 -14 -5Q0 -3 2 18M2 18Q24 3 16 -5Q4 -3 2 18" fill="#59714a" stroke="#59714a" stroke-width="1" stroke-linecap="round" stroke-linejoin="round"/></g><g transform="translate(64 32) rotate(75)"><path d="M0 30L0 -30M0 12L-26 -15M0 1L24 -25M0 -10L-18 -31M0 22L28 -6" fill="none" stroke="#58846c" stroke-width="2" stroke-linecap="round" stroke-linejoin="round"/><path d="M0 -20l-13 -12m8 7l-3 -12" fill="none" stroke="#58846c" stroke-width="1.5" stroke-linecap="round" stroke-linejoin="round"/><path d="M0 -6l-13 -12m8 7l-3 -12" fill="none" stroke="#58846c" stroke-width="1.5" stroke-linecap="round" stroke-linejoin="round"/><path d="M0 9l-13 -12m8 7l-3 -12" fill="none" stroke="#58846c" stroke-width="1.5" stroke-linecap="round" stroke-linejoin="round"/><path d="M0 -20l13 -12m-8 7l3 -12" fill="none" stroke="#58846c" stroke-width="1.5" stroke-linecap="round" stroke-linejoin="round"/><path d="M0 -6l13 -12m-8 7l3 -12" fill="none" stroke="#58846c" stroke-width="1.5" stroke-linecap="round" stroke-linejoin="round"/><path d="M0 9l13 -12m-8 7l3 -12" fill="none" stroke="#58846c" stroke-width="1.5" stroke-linecap="round" stroke-linejoin="round"/></g></g><g transform="translate(387 398) scale(1.19)"><path d="M128 -17L207 -62L194 -13L213 44L128 20Z" fill="#b59b62" stroke="#6d796f" stroke-width="2" stroke-linecap="round" stroke-linejoin="round"/><path d="M139 0L198 -37" fill="none" stroke="#84744b" stroke-width="2" stroke-linecap="round" stroke-linejoin="round"/><path d="M139 0L198 -20" fill="none" stroke="#84744b" stroke-width="2" stroke-linecap="round" stroke-linejoin="round"/><path d="M139 0L198 0" fill="none" stroke="#84744b" stroke-width="2" stroke-linecap="round" stroke-linejoin="round"/><path d="M139 0L198 21" fill="none" stroke="#84744b" stroke-width="2" stroke-linecap="round" stroke-linejoin="round"/><path d="M139 0L198 32" fill="none" stroke="#84744b" stroke-width="2" stroke-linecap="round" stroke-linejoin="round"/><path d="M-78 -40Q-7 -89 62 -47L21 -30Z" fill="#b29858" stroke="#6d796f" stroke-width="2" stroke-linecap="round" stroke-linejoin="round"/><path d="M-19 38L54 81L74 40Z" fill="#b99b60" stroke="#6d796f" stroke-width="2" stroke-linecap="round" stroke-linejoin="round"/><path d="M-193 -4Q-165 -43 -125 -50Q-21 -83 89 -42Q131 -28 151 0Q120 34 88 47Q-40 81 -140 44Q-179 26 -193 -4Z" fill="#c6af78" stroke="#69776e" stroke-width="3" stroke-linecap="round" stroke-linejoin="round"/><path d="M-122 -41Q-26 -63 83 -31Q-7 -29 -97 -7Z" fill="#ab975e" stroke="none" stroke-width="3" stroke-linecap="round" stroke-linejoin="round"/><path d="M-130 31Q-22 58 94 28Q35 66 -75 53Z" fill="#eee0b2" stroke="none" stroke-width="3" stroke-linecap="round" stroke-linejoin="round"/><path d="M-126 -42Q-96 -8 -123 39M-186 6l25 5" fill="none" stroke="#6c796b" stroke-width="3" stroke-linecap="round" stroke-linejoin="round"/><ellipse cx="-150" cy="-13" rx="10" ry="10" fill="#ded5b2" stroke="#6b766b" stroke-width="2"/><ellipse cx="-150" cy="-13" rx="5" ry="5" fill="#374a44" stroke="none" stroke-width="3"/><path d="M-69 -33q25 25 5 65" fill="none" stroke="#f1e5c1" stroke-width="7" stroke-linecap="round" stroke-linejoin="round"/><path d="M-65 -32q19 22 4 61" fill="none" stroke="#79806b" stroke-width="2" stroke-linecap="round" stroke-linejoin="round"/><path d="M-16 -33q25 25 5 65" fill="none" stroke="#f1e5c1" stroke-width="7" stroke-linecap="round" stroke-linejoin="round"/><path d="M-12 -32q19 22 4 61" fill="none" stroke="#79806b" stroke-width="2" stroke-linecap="round" stroke-linejoin="round"/><path d="M37 -33q25 25 5 65" fill="none" stroke="#f1e5c1" stroke-width="7" stroke-linecap="round" stroke-linejoin="round"/><path d="M41 -32q19 22 4 61" fill="none" stroke="#79806b" stroke-width="2" stroke-linecap="round" stroke-linejoin="round"/><ellipse cx="5.001666493091715" cy="1" rx="3" ry="1.9500000000000002" fill="#8a784b" stroke="none" stroke-width="3"/><ellipse cx="-13.219411267472191" cy="4.821150140452319" rx="3" ry="1.9500000000000002" fill="#8a784b" stroke="none" stroke-width="3"/><ellipse cx="-1.4357553002257686" cy="-6.275004669187731" rx="3" ry="1.9500000000000002" fill="#8a784b" stroke="none" stroke-width="3"/><ellipse cx="9.880905983196287" cy="7.8574942538573636" rx="3" ry="1.9500000000000002" fill="#8a784b" stroke="none" stroke-width="3"/><ellipse cx="-26.638046697693813" cy="-0.7066276138003884" rx="3" ry="1.9500000000000002" fill="#8a784b" stroke="none" stroke-width="3"/><ellipse cx="19.392021388616747" cy="-4.8138657374422715" rx="3" ry="1.9500000000000002" fill="#8a784b" stroke="none" stroke-width="3"/><ellipse cx="-10.489692971840554" cy="12.371952797549437" rx="3" ry="1.9500000000000002" fill="#8a784b" stroke="none" stroke-width="3"/><ellipse cx="-17.283656626885858" cy="-10.225433380488928" rx="3" ry="1.9500000000000002" fill="#8a784b" stroke="none" stroke-width="3"/><ellipse cx="27.989821540483785" cy="5.61936048954055" rx="3" ry="1.9500000000000002" fill="#8a784b" stroke="none" stroke-width="3"/><ellipse cx="-35.239745492849124" cy="6.431876808998442" rx="3" ry="1.9500000000000002" fill="#8a784b" stroke="none" stroke-width="3"/><ellipse cx="12.541687772729471" cy="-12.555789308235111" rx="3" ry="1.9500000000000002" fill="#8a784b" stroke="none" stroke-width="3"/><ellipse cx="8.484911765415236" cy="15.945187288423012" rx="3" ry="1.9500000000000002" fill="#8a784b" stroke="none" stroke-width="3"/><ellipse cx="-37.615657667328605" cy="-7.187951560556181" rx="3" ry="1.9500000000000002" fill="#8a784b" stroke="none" stroke-width="3"/><ellipse cx="37.60810690961445" cy="-2.6439094853942864" rx="3" ry="1.9500000000000002" fill="#8a784b" stroke="none" stroke-width="3"/><ellipse cx="-27.782495631728782" cy="15.387979408277156" rx="3" ry="1.9500000000000002" fill="#8a784b" stroke="none" stroke-width="3"/><ellipse cx="-8.725330135950053" cy="-17.033460784660683" rx="3" ry="1.9500000000000002" fill="#8a784b" stroke="none" stroke-width="3"/><ellipse cx="32.147912521789294" cy="13.090897201840068" rx="3" ry="1.9500000000000002" fill="#8a784b" stroke="none" stroke-width="3"/><ellipse cx="-50.29807285977682" cy="1.7983361586262034" rx="3" ry="1.9500000000000002" fill="#8a784b" stroke="none" stroke-width="3"/><ellipse cx="31.500313501215757" cy="-13.013232486193873" rx="3" ry="1.9500000000000002" fill="#8a784b" stroke="none" stroke-width="3"/><ellipse cx="-5.308204882619526" cy="21.37430738788443" rx="3" ry="1.9500000000000002" fill="#8a784b" stroke="none" stroke-width="3"/><ellipse cx="-35.82715868360458" cy="-15.056288877277453" rx="3" ry="1.9500000000000002" fill="#8a784b" stroke="none" stroke-width="3"/><ellipse cx="49.00184427184401" cy="3.8558264895707737" rx="3" ry="1.9500000000000002" fill="#8a784b" stroke="none" stroke-width="3"/><ellipse cx="-47.06105769490269" cy="13.51287180536115" rx="3" ry="1.9500000000000002" fill="#8a784b" stroke="none" stroke-width="3"/><ellipse cx="9.040015557143496" cy="-20.844520293237434" rx="3" ry="1.9500000000000002" fill="#8a784b" stroke="none" stroke-width="3"/><ellipse cx="24.84792852102227" cy="20.83606089287612" rx="3" ry="1.9500000000000002" fill="#8a784b" stroke="none" stroke-width="3"/><ellipse cx="-57.44003627530681" cy="-6.088921148943599" rx="3" ry="1.9500000000000002" fill="#8a784b" stroke="none" stroke-width="3"/><ellipse cx="49.881567396000165" cy="-8.97249998901603" rx="3" ry="1.9500000000000002" fill="#8a784b" stroke="none" stroke-width="3"/><ellipse cx="-25.9096166569506" cy="23.34341089028526" rx="3" ry="1.9500000000000002" fill="#8a784b" stroke="none" stroke-width="3"/><ellipse cx="-23.44632728322656" cy="-22.20244892440222" rx="3" ry="1.9500000000000002" fill="#8a784b" stroke="none" stroke-width="3"/><ellipse cx="51.40548337529134" cy="12.671019523392419" rx="3" ry="1.9500000000000002" fill="#8a784b" stroke="none" stroke-width="3"/><ellipse cx="-63.430803306123096" cy="7.501781749752966" rx="3" ry="1.9500000000000002" fill="#8a784b" stroke="none" stroke-width="3"/><ellipse cx="31.349286043037765" cy="-20.80450243075933" rx="3" ry="1.9500000000000002" fill="#8a784b" stroke="none" stroke-width="3"/><ellipse cx="7.926710008011369" cy="26.95077627214435" rx="3" ry="1.9500000000000002" fill="#8a784b" stroke="none" stroke-width="3"/><ellipse cx="-54.78302117245344" cy="-15.368850177392734" rx="3" ry="1.9500000000000002" fill="#8a784b" stroke="none" stroke-width="3"/><ellipse cx="63.23989447803923" cy="-1.2399343841994663" rx="3" ry="1.9500000000000002" fill="#8a784b" stroke="none" stroke-width="3"/><ellipse cx="-48.78573043263283" cy="21.201237573825473" rx="3" ry="1.9500000000000002" fill="#8a784b" stroke="none" stroke-width="3"/><ellipse cx="-2.6664897258681024" cy="-26.90426734755578" rx="3" ry="1.9500000000000002" fill="#8a784b" stroke="none" stroke-width="3"/><ellipse cx="43.55926614109943" cy="21.9488965331406" rx="3" ry="1.9500000000000002" fill="#8a784b" stroke="none" stroke-width="3"/><ellipse cx="-72.91471284831266" cy="-1.6447675916257665" rx="3" ry="1.9500000000000002" fill="#8a784b" stroke="none" stroke-width="3"/><ellipse cx="53.65160065013181" cy="-16.54960986474552" rx="3" ry="1.9500000000000002" fill="#8a784b" stroke="none" stroke-width="3"/><ellipse cx="-15.889503227788204" cy="29.919226310578782" rx="3" ry="1.9500000000000002" fill="#8a784b" stroke="none" stroke-width="3"/><ellipse cx="-41.826228687589776" cy="-24.18316838455004" rx="3" ry="1.9500000000000002" fill="#8a784b" stroke="none" stroke-width="3"/><ellipse cx="68.14818799580024" cy="8.958681424037406" rx="3" ry="1.9500000000000002" fill="#8a784b" stroke="none" stroke-width="3"/><ellipse cx="-69.40136069685603" cy="14.908604497506524" rx="3" ry="1.9500000000000002" fill="#8a784b" stroke="none" stroke-width="3"/><ellipse cx="23.240750032904586" cy="-27.88976123497567" rx="3" ry="1.9500000000000002" fill="#8a784b" stroke="none" stroke-width="3"/><ellipse cx="25.780054612566822" cy="29.85611845644238" rx="3" ry="1.9500000000000002" fill="#8a784b" stroke="none" stroke-width="3"/><ellipse cx="-72.7308542632703" cy="-12.488471105495046" rx="3" ry="1.9500000000000002" fill="#8a784b" stroke="none" stroke-width="3"/><ellipse cx="71.52881036346419" cy="-8.378786835494436" rx="3" ry="1.9500000000000002" fill="#8a784b" stroke="none" stroke-width="3"/><ellipse cx="-42.84672110959089" cy="28.751576857408686" rx="3" ry="1.9500000000000002" fill="#8a784b" stroke="none" stroke-width="3"/><ellipse cx="-19.715478628500264" cy="-30.771866867323475" rx="3" ry="1.9500000000000002" fill="#8a784b" stroke="none" stroke-width="3"/><ellipse cx="62.558705226925625" cy="20.00809578854338" rx="3" ry="1.9500000000000002" fill="#8a784b" stroke="none" stroke-width="3"/><ellipse cx="-83.58463057527587" cy="5.099227011639909" rx="3" ry="1.9500000000000002" fill="#8a784b" stroke="none" stroke-width="3"/><ellipse cx="50.14515568899247" cy="-24.48453378403353" rx="3" ry="1.9500000000000002" fill="#8a784b" stroke="none" stroke-width="3"/><ellipse cx="0.01640008582245711" cy="34.76118362867719" rx="3" ry="1.9500000000000002" fill="#8a784b" stroke="none" stroke-width="3"/><ellipse cx="-61.637763343575564" cy="-23.28663821507627" rx="3" ry="1.9500000000000002" fill="#8a784b" stroke="none" stroke-width="3"/><ellipse cx="81.19280484246505" cy="2.757075907544105" rx="3" ry="1.9500000000000002" fill="#8a784b" stroke="none" stroke-width="3"/><ellipse cx="-68.5719018973696" cy="23.113783282406388" rx="3" ry="1.9500000000000002" fill="#8a784b" stroke="none" stroke-width="3"/><ellipse cx="8.857003716583886" cy="-33.687822111476166" rx="3" ry="1.9500000000000002" fill="#8a784b" stroke="none" stroke-width="3"/><ellipse cx="46.08500632917116" cy="30.09657948488369" rx="3" ry="1.9500000000000002" fill="#8a784b" stroke="none" stroke-width="3"/><ellipse cx="-88.06503703440727" cy="-6.989088848930803" rx="3" ry="1.9500000000000002" fill="#8a784b" stroke="none" stroke-width="3"/><ellipse cx="73.5814045948683" cy="-16.709371729520853" rx="3" ry="1.9500000000000002" fill="#8a784b" stroke="none" stroke-width="3"/><ellipse cx="-30.38414583181124" cy="35.45388435211798" rx="3" ry="1.9500000000000002" fill="#8a784b" stroke="none" stroke-width="3"/><ellipse cx="-40.12548253964486" cy="-32.222162781498135" rx="3" ry="1.9500000000000002" fill="#8a784b" stroke="none" stroke-width="3"/><ellipse cx="80.01246960567816" cy="15.374746219851536" rx="3" ry="1.9500000000000002" fill="#8a784b" stroke="none" stroke-width="3"/><ellipse cx="-88.66699474819691" cy="13.38428160166095" rx="3" ry="1.9500000000000002" fill="#8a784b" stroke="none" stroke-width="3"/><ellipse cx="40.00231840775323" cy="-32.00396640404388" rx="3" ry="1.9500000000000002" fill="#8a784b" stroke="none" stroke-width="3"/><ellipse cx="20.085616753454417" cy="37.46751126535913" rx="3" ry="1.9500000000000002" fill="#8a784b" stroke="none" stroke-width="3"/><ellipse cx="-80.95416048090122" cy="-19.67881295132456" rx="3" ry="1.9500000000000002" fill="#8a784b" stroke="none" stroke-width="3"/><ellipse cx="89.38018563197186" cy="-5.290941848700568" rx="3" ry="1.9500000000000002" fill="#8a784b" stroke="none" stroke-width="3"/><ellipse cx="-61.126765288477756" cy="31.32789247296471" rx="3" ry="1.9500000000000002" fill="#8a784b" stroke="none" stroke-width="3"/><ellipse cx="-10.3828626772758" cy="-37.6641867890221" rx="3" ry="1.9500000000000002" fill="#8a784b" stroke="none" stroke-width="3"/><ellipse cx="66.92192250527407" cy="27.661335986181566" rx="3" ry="1.9500000000000002" fill="#8a784b" stroke="none" stroke-width="3"/><ellipse cx="-99.34823791652518" cy="0.616301119528849" rx="3" ry="1.9500000000000002" fill="#8a784b" stroke="none" stroke-width="3"/><ellipse cx="69.1718413591057" cy="-25.461905744223593" rx="3" ry="1.9500000000000002" fill="#8a784b" stroke="none" stroke-width="3"/><ellipse cx="-12.487999477353185" cy="40.677901825235054" rx="3" ry="1.9500000000000002" fill="#8a784b" stroke="none" stroke-width="3"/><path d="M-66 35Q-7 24 77 40" fill="none" stroke="#71806a" stroke-width="3" stroke-linecap="round" stroke-linejoin="round"/></g><g transform="translate(387 398) scale(1.1)"><ellipse cx="-29" cy="33" rx="22" ry="22" fill="#f6d26f" stroke="#c8a449" stroke-width="2"/><ellipse cx="-29" cy="33" rx="17" ry="17" fill="#fff0b7" stroke="#fff8da" stroke-width="2"/><path d="M-29 33L-14 33" fill="none" stroke="#e8c976" stroke-width="2" stroke-linecap="round" stroke-linejoin="round"/><path d="M-29 33L-18.393398282201787 43.60660171779821" fill="none" stroke="#e8c976" stroke-width="2" stroke-linecap="round" stroke-linejoin="round"/><path d="M-29 33L-29 48" fill="none" stroke="#e8c976" stroke-width="2" stroke-linecap="round" stroke-linejoin="round"/><path d="M-29 33L-39.60660171779821 43.60660171779821" fill="none" stroke="#e8c976" stroke-width="2" stroke-linecap="round" stroke-linejoin="round"/><path d="M-29 33L-44 33" fill="none" stroke="#e8c976" stroke-width="2" stroke-linecap="round" stroke-linejoin="round"/><path d="M-29 33L-39.60660171779821 22.393398282201787" fill="none" stroke="#e8c976" stroke-width="2" stroke-linecap="round" stroke-linejoin="round"/><path d="M-29 33L-29.000000000000004 18" fill="none" stroke="#e8c976" stroke-width="2" stroke-linecap="round" stroke-linejoin="round"/><path d="M-29 33L-18.39339828220179 22.393398282201787" fill="none" stroke="#e8c976" stroke-width="2" stroke-linecap="round" stroke-linejoin="round"/><ellipse cx="9" cy="37" rx="22" ry="22" fill="#f6d26f" stroke="#c8a449" stroke-width="2"/><ellipse cx="9" cy="37" rx="17" ry="17" fill="#fff0b7" stroke="#fff8da" stroke-width="2"/><path d="M9 37L24 37" fill="none" stroke="#e8c976" stroke-width="2" stroke-linecap="round" stroke-linejoin="round"/><path d="M9 37L19.606601717798213 47.60660171779821" fill="none" stroke="#e8c976" stroke-width="2" stroke-linecap="round" stroke-linejoin="round"/><path d="M9 37L9.000000000000002 52" fill="none" stroke="#e8c976" stroke-width="2" stroke-linecap="round" stroke-linejoin="round"/><path d="M9 37L-1.6066017177982115 47.60660171779821" fill="none" stroke="#e8c976" stroke-width="2" stroke-linecap="round" stroke-linejoin="round"/><path d="M9 37L-6 37" fill="none" stroke="#e8c976" stroke-width="2" stroke-linecap="round" stroke-linejoin="round"/><path d="M9 37L-1.606601717798215 26.393398282201787" fill="none" stroke="#e8c976" stroke-width="2" stroke-linecap="round" stroke-linejoin="round"/><path d="M9 37L8.999999999999996 22" fill="none" stroke="#e8c976" stroke-width="2" stroke-linecap="round" stroke-linejoin="round"/><path d="M9 37L19.60660171779821 26.393398282201787" fill="none" stroke="#e8c976" stroke-width="2" stroke-linecap="round" stroke-linejoin="round"/><ellipse cx="45" cy="38" rx="22" ry="22" fill="#f6d26f" stroke="#c8a449" stroke-width="2"/><ellipse cx="45" cy="38" rx="17" ry="17" fill="#fff0b7" stroke="#fff8da" stroke-width="2"/><path d="M45 38L60 38" fill="none" stroke="#e8c976" stroke-width="2" stroke-linecap="round" stroke-linejoin="round"/><path d="M45 38L55.60660171779821 48.60660171779821" fill="none" stroke="#e8c976" stroke-width="2" stroke-linecap="round" stroke-linejoin="round"/><path d="M45 38L45 53" fill="none" stroke="#e8c976" stroke-width="2" stroke-linecap="round" stroke-linejoin="round"/><path d="M45 38L34.39339828220179 48.60660171779821" fill="none" stroke="#e8c976" stroke-width="2" stroke-linecap="round" stroke-linejoin="round"/><path d="M45 38L30 38" fill="none" stroke="#e8c976" stroke-width="2" stroke-linecap="round" stroke-linejoin="round"/><path d="M45 38L34.39339828220179 27.393398282201787" fill="none" stroke="#e8c976" stroke-width="2" stroke-linecap="round" stroke-linejoin="round"/><path d="M45 38L45 23" fill="none" stroke="#e8c976" stroke-width="2" stroke-linecap="round" stroke-linejoin="round"/><path d="M45 38L55.60660171779821 27.393398282201787" fill="none" stroke="#e8c976" stroke-width="2" stroke-linecap="round" stroke-linejoin="round"/><g transform="translate(-54 36) rotate(-72)"><path d="M0 30Q5 0 0 -33" fill="none" stroke="#59714a" stroke-width="3" stroke-linecap="round" stroke-linejoin="round"/><path d="M2 -12Q-25 -27 -14 -35Q0 -33 2 -12M2 -12Q24 -27 16 -35Q4 -33 2 -12" fill="#59714a" stroke="#59714a" stroke-width="1" stroke-linecap="round" stroke-linejoin="round"/><path d="M2 3Q-25 -12 -14 -20Q0 -18 2 3M2 3Q24 -12 16 -20Q4 -18 2 3" fill="#59714a" stroke="#59714a" stroke-width="1" stroke-linecap="round" stroke-linejoin="round"/><path d="M2 18Q-25 3 -14 -5Q0 -3 2 18M2 18Q24 3 16 -5Q4 -3 2 18" fill="#59714a" stroke="#59714a" stroke-width="1" stroke-linecap="round" stroke-linejoin="round"/></g><g transform="translate(64 32) rotate(75)"><path d="M0 30L0 -30M0 12L-26 -15M0 1L24 -25M0 -10L-18 -31M0 22L28 -6" fill="none" stroke="#58846c" stroke-width="2" stroke-linecap="round" stroke-linejoin="round"/><path d="M0 -20l-13 -12m8 7l-3 -12" fill="none" stroke="#58846c" stroke-width="1.5" stroke-linecap="round" stroke-linejoin="round"/><path d="M0 -6l-13 -12m8 7l-3 -12" fill="none" stroke="#58846c" stroke-width="1.5" stroke-linecap="round" stroke-linejoin="round"/><path d="M0 9l-13 -12m8 7l-3 -12" fill="none" stroke="#58846c" stroke-width="1.5" stroke-linecap="round" stroke-linejoin="round"/><path d="M0 -20l13 -12m-8 7l3 -12" fill="none" stroke="#58846c" stroke-width="1.5" stroke-linecap="round" stroke-linejoin="round"/><path d="M0 -6l13 -12m-8 7l3 -12" fill="none" stroke="#58846c" stroke-width="1.5" stroke-linecap="round" stroke-linejoin="round"/><path d="M0 9l13 -12m-8 7l3 -12" fill="none" stroke="#58846c" stroke-width="1.5" stroke-linecap="round" stroke-linejoin="round"/></g></g><ellipse cx="442.7350428199288" cy="314" rx="3" ry="1.9500000000000002" fill="#937344" stroke="none" stroke-width="3"/><ellipse cx="372.74642161462293" cy="316.18883872005176" rx="3" ry="1.9500000000000002" fill="#937344" stroke="none" stroke-width="3"/><ellipse cx="418.00838936113064" cy="309.8327175527863" rx="3" ry="1.9500000000000002" fill="#937344" stroke="none" stroke-width="3"/><ellipse cx="461.47659306905797" cy="317.92812331200327" rx="3" ry="1.9500000000000002" fill="#937344" stroke="none" stroke-width="3"/><ellipse cx="321.2043666078387" cy="313.0224062220822" rx="3" ry="1.9500000000000002" fill="#937344" stroke="none" stroke-width="3"/><ellipse cx="498.00955023532606" cy="310.66969002223254" rx="3" ry="1.9500000000000002" fill="#937344" stroke="none" stroke-width="3"/><ellipse cx="383.23148854099577" cy="320.51410431177936" rx="3" ry="1.9500000000000002" fill="#937344" stroke="none" stroke-width="3"/><ellipse cx="357.1353291927978" cy="307.5698252281532" rx="3" ry="1.9500000000000002" fill="#937344" stroke="none" stroke-width="3"/><ellipse cx="531.0343902549606" cy="316.64607113820097" rx="3" ry="1.9500000000000002" fill="#937344" stroke="none" stroke-width="3"/><ellipse cx="288.1645515866207" cy="317.1114983303638" rx="3" ry="1.9500000000000002" fill="#937344" stroke="none" stroke-width="3"/><ellipse cx="471.6968693460552" cy="306.23494617376747" rx="3" ry="1.9500000000000002" fill="#937344" stroke="none" stroke-width="3"/><ellipse cx="456.11446730476666" cy="322.5609315030613" rx="3" ry="1.9500000000000002" fill="#937344" stroke="none" stroke-width="3"/><ellipse cx="279.0384823506607" cy="309.30976152338997" rx="3" ry="1.9500000000000002" fill="#937344" stroke="none" stroke-width="3"/><ellipse cx="567.9789958480267" cy="311.9126886197016" rx="3" ry="1.9500000000000002" fill="#937344" stroke="none" stroke-width="3"/><ellipse cx="316.8084464550612" cy="322.241750591987" rx="3" ry="1.9500000000000002" fill="#937344" stroke="none" stroke-width="3"/><ellipse cx="390.0085477145821" cy="303.67003761403436" rx="3" ry="1.9500000000000002" fill="#937344" stroke="none" stroke-width="3"/><ellipse cx="547.0059512379034" cy="320.92593145592025" rx="3" ry="1.9500000000000002" fill="#937344" stroke="none" stroke-width="3"/><ellipse cx="230.32430832996843" cy="314.45730448461563" rx="3" ry="1.9500000000000002" fill="#937344" stroke="none" stroke-width="3"/><ellipse cx="544.5184714554537" cy="305.9729126751253" rx="3" ry="1.9500000000000002" fill="#937344" stroke="none" stroke-width="3"/><ellipse cx="403.13399990292913" cy="325.6708507296598" rx="3" ry="1.9500000000000002" fill="#937344" stroke="none" stroke-width="3"/><ellipse cx="285.90825040405497" cy="304.8026051049748" rx="3" ry="1.9500000000000002" fill="#937344" stroke="none" stroke-width="3"/><ellipse cx="611.7432549569866" cy="315.6358801325148" rx="3" ry="1.9500000000000002" fill="#937344" stroke="none" stroke-width="3"/><ellipse cx="242.75794322178257" cy="321.1676477761683" rx="3" ry="1.9500000000000002" fill="#937344" stroke="none" stroke-width="3"/><ellipse cx="458.2466654941067" cy="301.48697902953006" rx="3" ry="1.9500000000000002" fill="#937344" stroke="none" stroke-width="3"/><ellipse cx="518.9661271534984" cy="325.3625313164198" rx="3" ry="1.9500000000000002" fill="#937344" stroke="none" stroke-width="3"/><ellipse cx="202.89145398841433" cy="309.9393102799241" rx="3" ry="1.9500000000000002" fill="#937344" stroke="none" stroke-width="3"/><ellipse cx="615.1223420401541" cy="308.28753299154846" rx="3" ry="1.9500000000000002" fill="#937344" stroke="none" stroke-width="3"/><ellipse cx="324.00232482227995" cy="326.7987964610291" rx="3" ry="1.9500000000000002" fill="#937344" stroke="none" stroke-width="3"/><g transform="translate(708 299) rotate(-18)"><path d="M0 -67L0 51M-14 -69L-14 -37Q-13 -21 0 -21Q13 -21 14 -37L14 -69M-5 -69L-5 -35M5 -69L5 -35" fill="none" stroke="#8a9990" stroke-width="5" stroke-linecap="round" stroke-linejoin="round"/><rect x="-6" y="34" width="12" height="61" rx="5" fill="#9fa89b" stroke="#76847b" stroke-width="3"/></g></svg>
